<svg xmlns="http://www.w3.org/2000/svg" viewBox="0 0 100.06 100"><defs><style>.cls-1{fill:#fff;}.cls-2{fill:#d5e3e3;}.cls-3{fill:#1d1d1b;}</style></defs><title>pImg01</title><g id="Layer_1" data-name="Layer 1"><rect class="cls-1" x="0.06" width="100" height="100"/><rect class="cls-1" x="0.06" y="100" width="100" height="100"/></g><g id="Layer_3" data-name="Layer 3"><path class="cls-2" d="M13.35,41.66a26.53,26.53,0,0,0,9.39.91c.75,0,8.1-.48,8.16,0L31.32,36c-2.24,4.59-10.62,4.46-14.6,7.18-4.17,2.85-3.87,7.27-2.84,11.75.07.33.26,1.17.72,1.29,6.41,1.66,14.09-2,19.33-5.41,1.11-.74,1-8.57-.48-8.77-7.29-1-13.21,3.6-15.7,10.25-1.12,3-3.26,11.4-.38,14.07,2.17,2,9.59.31,12.21-.12a54.63,54.63,0,0,0,12-3.39c2.39-1,5.62-1.89,6.73-4.48a11.73,11.73,0,0,0-.1-7.43c-2.11-5.06-14.77-3.3-18.74-1.17-5.13,2.77-7.81,8.2-8,13.87-.09,2.26-.33,5.88,1.43,7.72,2.06,2.17,6.29,1.93,8.94,1.89,7.45-.09,16.76-2.32,21.44-8.56.94-1.25,1.31-8-.48-8.77-6.62-2.65-14.41,1.17-20.4,4.06-5.69,2.75-8.4,6-9,12.33-.35,3.91-.82,10.25,3.35,12.31,5.89,2.91,14.88-.83,20.24-3.37,4.77-2.25,8.29-5.46,8.94-10.9.56-4.71.48-8.91-4.9-8.91-12.13,0-19.13,11.79-15.16,23,2.06,5.79,11.93,2.45,16.14,1.13,5.6-1.74,14.07-4,15.38-10.54.24-1.2.85-7.21-.88-7.61C57.3,65.29,50.23,72,50.43,81c0,1-.06,4,1.09,4.44,4.07,1.7,12.44-4.23,14.71-7.54,2.06-3,2.35-8.82.76-12.07-2.43-4.93-12.21-4-16.64-3.28-5.46.94-10,2.31-10.26,8.33-.26,5.41,1.3,8.6,7.17,8,5.57-.58,11.22-2.58,12.61-8.61.77-3.35,1.14-9.78-2.09-12-2.34-1.63-6.28-1.23-9-1.41-4.23-.28-8.46-.41-12.7-.45-1.33,0-1.31,8.92.22,8.93,3.63,0,7.26.14,10.88.34,1.52.09,3,.19,4.53.31,1.08.09,3.64.89,4.59.53.78.41,1.19,0,1.23-1.13l-1,1.1c-2.06,1.28-3,2.12-5.27,2.77s-8.8,2.32-9.85-1.05l.37,7c.69-3.13,9.59-3.93,12.07-4.08,3.6-.23,10.67-.42,12.66,3.14l-.76-3.11c-.28-3-.73-1.21-2.12,0a28.64,28.64,0,0,1-4.77,3.35c-2.13,1.21-5.14,3-7.61,2L52.38,81c0,2.1,1.85-1.13,2.07-1.37a11.41,11.41,0,0,1,3.7-2.68,12.88,12.88,0,0,1,8.57-.59l-.88-7.61c-.73,3.69-7.75,5.6-10.76,6.74a41.72,41.72,0,0,1-13.47,3,16,16,0,0,1-2.85-.07q-2.28-1.83-1.5.1c0-2.16,3.77-5.18,5.27-6.06,1.18-.68,11.45-4,11.95-1.64l-.16-6.32c-.93,5.58-7.39,7.94-12,9.66-3.69,1.37-12,4.31-15.56,1.46-1.24-1-1-1.51.08-2.92a13.58,13.58,0,0,1,4.28-3.06A59.93,59.93,0,0,1,38,66.59c4.86-1.9,10-3.77,15-1.73l-.47-8.77c-3.44,4.58-9.46,6.65-14.93,7.64-3.92.71-12.65,2.06-15-2L23.4,66c0-1.39,2.23-3.88,3.21-4.88a13.82,13.82,0,0,1,6.88-3.78,26.81,26.81,0,0,1,14.1.85l-.72-1.29.25.82.25-7.47C45.16,54,36.92,55.69,32.86,56.62c-2.13.5-14.22,3.19-15.24.86l.57,5C18.42,55,27,50.06,33.67,51L33.2,42.2c-5,3.29-12.72,6.67-18.82,5.09l.72,1.29-.27-1.2-.25,7.48c4.21-7.44,18-3.8,18.08-14,0-2.75.05-6.17-2.9-7.23-2.28-.82-5.74,0-8.12,0a25,25,0,0,1-8.51-1c-.53-.16-1.84,8.29.22,8.94Z"/><path class="cls-2" d="M20,62.34q5.26-.69,10.48-1.61c1.74-.3.84-9.12-.22-8.93q-5.22.91-10.48,1.61c-1.65.21-1,9.08.22,8.93Z"/><path class="cls-2" d="M25.5,78l24,0c1.35,0,1.29-8.93-.22-8.93l-24,0C23.93,69.05,24,78,25.5,78Z"/><path class="cls-3" d="M65.13,38q0,10.08.15,20.17c0,.85.07,1.66,0,2.54a3.59,3.59,0,0,1-1.13,2.37,3.13,3.13,0,0,1-1.2.66,3.71,3.71,0,0,1-.68.12,1.42,1.42,0,0,1-.42,0,1.19,1.19,0,0,1-.38-.25,3.35,3.35,0,0,1-.56-1.27c-.12-.41-.22-.81-.36-1.19a2.65,2.65,0,0,0-1.27-1.73,2,2,0,0,0-1.93.27,6.25,6.25,0,0,0-1.1,2,3.84,3.84,0,0,1-1.83,2.15,3.77,3.77,0,0,1-.72.23c-.24,0-.47.06-.72.09a2.32,2.32,0,0,1-1.56-.48,4.3,4.3,0,0,1-1.22-2.62c-.3-1.74-.25-3.46-.56-5a3.13,3.13,0,0,0-.34-.93.48.48,0,0,0-.43-.28c-.59,0-.75.17-1,.83s-.19,1.51-.37,2.44a3.84,3.84,0,0,1-.62,1.5,2.8,2.8,0,0,1-.71.66,3,3,0,0,1-.89.31,3.42,3.42,0,0,1-.83.06,3.31,3.31,0,0,1-.84-.13,2.5,2.5,0,0,1-.89-.45,4.72,4.72,0,0,1-.37-.41c-.09-.15-.17-.3-.25-.45a6.48,6.48,0,0,1-.32-1.44,1.81,1.81,0,0,0-.22-.72c-.05-.08-.24-.14-.51-.2l-.47,0c-.13,0-.27,0-.39.05s-.34.12-.44.32-.11.24-.17.34-.09.31-.13.49c-.14.71-.16,1.55-.38,2.53a3,3,0,0,1-.91,1.6,2.37,2.37,0,0,1-1,.49,4.33,4.33,0,0,1-.9.08,5,5,0,0,1-1.53-.29,8.24,8.24,0,0,1-1.3-.63,4.38,4.38,0,0,1-1.21-1.09,4.48,4.48,0,0,1-.76-1.44l0-.12v-.15q0-9,.17-18.07c0-1.51,0-3,.17-4.58A16.88,16.88,0,0,1,33,31.86,17.7,17.7,0,0,1,37,26.11a18.14,18.14,0,0,1,1.8-1.48,16.59,16.59,0,0,1,8.57-3.12,17.43,17.43,0,0,1,4.56.31,16.81,16.81,0,0,1,4.28,1.52A15.47,15.47,0,0,1,59.86,26a17.1,17.1,0,0,1,1.55,1.64,18.24,18.24,0,0,1,1.3,1.86A16.47,16.47,0,0,1,65.13,38Zm0,0a16.4,16.4,0,0,0-2.48-8.55,16.91,16.91,0,0,0-1.31-1.83,17.06,17.06,0,0,0-1.58-1.6A15.23,15.23,0,0,0,56,23.57a15.92,15.92,0,0,0-16.74,1.8,17.35,17.35,0,0,0-1.64,1.45,18.49,18.49,0,0,0-1.39,1.68,15.32,15.32,0,0,0-2.05,3.82,16.1,16.1,0,0,0-.93,4.22c-.07,1.41,0,2.94,0,4.44q.15,9,.17,18.07l0-.27a2.68,2.68,0,0,0,.42.77,2.3,2.3,0,0,0,.66.59,7.09,7.09,0,0,0,1,.46,2.9,2.9,0,0,0,.93.18c.34,0,.43,0,.5-.09s.19-.28.28-.57c.16-.66.19-1.52.38-2.45.05-.23.13-.49.2-.73a3.39,3.39,0,0,1,.4-.78l.29-.38c.12-.11.26-.22.39-.32a2.72,2.72,0,0,1,.88-.41,6.39,6.39,0,0,1,.85-.11c.27,0,.53,0,.79.05a2.7,2.7,0,0,1,1.7.9,3.34,3.34,0,0,1,.6,1.64,6.78,6.78,0,0,0,.17,1c.08.18.1.18.33.27a1.43,1.43,0,0,0,.41.06,1.38,1.38,0,0,0,.41,0c.16,0,.2-.08.31-.08s.15-.08.2-.19a2.14,2.14,0,0,0,.34-.81c.17-.72.19-1.57.47-2.53a2.84,2.84,0,0,1,.94-1.47,2.38,2.38,0,0,1,.87-.4,3.58,3.58,0,0,1,.88-.06,2.07,2.07,0,0,1,1.59,1.05,4.69,4.69,0,0,1,.48,1.44c.28,1.8.16,3.47.37,5.06a3.35,3.35,0,0,0,.72,1.92,1.15,1.15,0,0,0,.79.25c.18,0,.36,0,.54,0a2.64,2.64,0,0,0,.48-.14,2.85,2.85,0,0,0,1.38-1.57A6.75,6.75,0,0,1,56.77,59a2.42,2.42,0,0,1,1.4-.54,3,3,0,0,1,1.43.23,3.37,3.37,0,0,1,1.61,2.23c.12.42.21.84.31,1.24a3.14,3.14,0,0,0,.39,1,.4.4,0,0,0,.34.13,2.61,2.61,0,0,0,.56-.08,2.54,2.54,0,0,0,1-.52,3.19,3.19,0,0,0,1.07-2c.09-.78,0-1.66.08-2.49Q65.13,48.13,65.13,38Z"/><path class="cls-3" d="M63.94,63c0,.79.08,1.62.13,2.49a2.58,2.58,0,0,1-.9,2.43,2.49,2.49,0,0,1-1.27.53c-.46,0-.85,0-1.28.06l-2.5.1c-3.35.13-6.69.21-10,.28L38,69H36.79a3.6,3.6,0,0,1-1.57-.21,3.19,3.19,0,0,1-2-2.69c0-.34,0-.47,0-.7V59.22l1.53,1a3.14,3.14,0,0,0,1.15.47,3.49,3.49,0,0,0,.65.06,1.21,1.21,0,0,0,.23,0h.1l0,0c.1,0,.23-.2.35-.64s.14-1,.22-1.52a6.89,6.89,0,0,1,.44-1.86,3.1,3.1,0,0,1,.66-1c.17-.15.35-.28.53-.41s.39-.16.59-.24a4.41,4.41,0,0,1,1.12-.14,4.2,4.2,0,0,1,1.06.16,2.51,2.51,0,0,1,1.14.66,2.55,2.55,0,0,1,.62,1.13c.18.71.18,1.27.29,1.58s.07.25.44.36a2,2,0,0,0,1-.07,1.2,1.2,0,0,0,.45-.76,11.9,11.9,0,0,0,.28-1.5,6.13,6.13,0,0,1,.49-1.86,5.54,5.54,0,0,1,.33-.51,3,3,0,0,1,.49-.45,2.5,2.5,0,0,1,1.18-.39,2.1,2.1,0,0,1,2.19,1.11,5.05,5.05,0,0,1,.54,1.88c.07.59.1,1.15.13,1.71a24.72,24.72,0,0,0,.22,3.19,3.49,3.49,0,0,0,.42,1.3,1,1,0,0,0,.84.52,2.2,2.2,0,0,0,2.21-1.16c.26-.42.46-.93.73-1.44a4,4,0,0,1,1.13-1.46,2.49,2.49,0,0,1,1.85-.39,2.38,2.38,0,0,1,1.63.88,8.66,8.66,0,0,1,1.1,3.2C61.55,63.94,63.13,63.58,63.94,63Zm0,0a2.94,2.94,0,0,1-1.49.72.91.91,0,0,1-.86-.21,2.43,2.43,0,0,1-.42-.77,8.58,8.58,0,0,0-1.23-2.92,1.78,1.78,0,0,0-1.25-.55,1.72,1.72,0,0,0-1.27.36c-.67.57-.88,1.69-1.43,2.75a3.59,3.59,0,0,1-1.3,1.42,3.7,3.7,0,0,1-1.9.47A2.31,2.31,0,0,1,51.7,64a2.4,2.4,0,0,1-.82-.76,4.79,4.79,0,0,1-.7-1.78,29.3,29.3,0,0,1-.38-3.36,15.56,15.56,0,0,0-.18-1.58,3.53,3.53,0,0,0-.39-1.26C49,55,49,55,48.68,55a.58.58,0,0,0-.59.4,5.08,5.08,0,0,0-.29,1.34,14.8,14.8,0,0,1-.28,1.74,3,3,0,0,1-1.31,1.91,3.52,3.52,0,0,1-2.25.31c-.19,0-.39-.1-.58-.16a3.7,3.7,0,0,1-.61-.35A2.49,2.49,0,0,1,42,59.05c-.22-.75-.21-1.31-.32-1.67s-.13-.31-.44-.42a2.13,2.13,0,0,0-.56-.07,2.36,2.36,0,0,0-.5.06c-.28.07-.37.2-.53.54a5.67,5.67,0,0,0-.28,1.34,15.14,15.14,0,0,1-.28,1.74,3.39,3.39,0,0,1-.42,1,2,2,0,0,1-.43.53,1.83,1.83,0,0,1-.6.39,2.26,2.26,0,0,1-.33.13l-.31.05a2.6,2.6,0,0,1-.59,0,5.56,5.56,0,0,1-1-.11,5,5,0,0,1-1.87-.79l1.52-.8,0,4.94a1.34,1.34,0,0,0,.81,1.14,2.09,2.09,0,0,0,.9.11H38l10,.18c3.35.07,6.69.15,10,.28l2.5.1c.41,0,.86,0,1.24,0a2,2,0,0,0,1-.35,2.26,2.26,0,0,0,.91-2C63.86,64.7,63.92,63.85,63.94,63Z"/><path class="cls-3" d="M53.09,68.15c.24,3,.5,6.27.68,9.64l.11,2.54,0,.63a4.46,4.46,0,0,1,0,.73,4.91,4.91,0,0,1-.38,1.41,5.19,5.19,0,0,1-4.68,3.11A5.26,5.26,0,0,1,44,83.15a5.16,5.16,0,0,1-.41-1.44,6.3,6.3,0,0,1,0-.75v-.61l0-2.44c.07-3.25.15-6.51.32-9.76l0-.66.6,0C47.55,67.65,50.46,67.94,53.09,68.15Zm0,0c-3.07.21-5.86.5-8.55.63l.63-.63c.18,3.25.26,6.51.33,9.76l0,2.44V81c0,.16,0,.32,0,.47a3.4,3.4,0,0,0,.27.89,3.34,3.34,0,0,0,3,2,3.43,3.43,0,0,0,3.1-1.9,3.31,3.31,0,0,0,.3-.92,3.85,3.85,0,0,0,.07-.49l0-.58L52.41,78C52.59,74.89,52.84,71.65,53.09,68.15Z"/></g></svg>