<svg xmlns="http://www.w3.org/2000/svg" viewBox="0 0 100 100"><defs><style>.cls-1{fill:#fff;}.cls-2{fill:#dcc1de;}.cls-3{fill:#1d1d1b;}</style></defs><title>pImg01</title><g id="Layer_1" data-name="Layer 1"><rect class="cls-1" width="100" height="100"/></g><g id="Layer_3" data-name="Layer 3"><path class="cls-2" d="M20.43,30.75a69.32,69.32,0,0,1,11.89,2,38.6,38.6,0,0,1,6.48,2.19,10.36,10.36,0,0,1,3.85,2.59q1.22-2.45-.39-.87c-1.65.29-2.69,1.32-4.67,1.25a25.1,25.1,0,0,1-5.29-1.08c-2.4-.63-10.65-1.49-11.45-4.34L21,38.81c.7-3.34,7.3-1.91,9.37-1.5,1.75.36,4,1.65,5.67,1.72l1.55.69q1.95-3.39-.08-1.08a16.55,16.55,0,0,1-10.42,1C26,39.38,16.55,37,16.57,37.1l-.42,6.58c2.42-2.65,9.78-1.52,12.89-1a44.25,44.25,0,0,1,6.63,1.63c1.35.43,6.54,3.39,7.33,3.24.78.82.89.41.32-1.23q.49-2.64-1.28-1c-.76,0-2.31.93-3.21,1.09a32.84,32.84,0,0,1-6.42.33c-4.63-.06-10.65-.08-14.86-2.15l1,3.25-.13-1.2-.33,5.06c1.86-4,8.26-3.6,11.82-3.2,3.28.37,10.82,1,12.12,4.59l-.57-5c0,2.46-6.63,3.66-8.46,3.81A42.29,42.29,0,0,1,22.31,51L23,59.32c1.38-2.91,7.9-2.45,10.42-2.25a23.55,23.55,0,0,1,5.65,1c1.41.49,3,2.46,3.56.86-1,2.77-6.09,2.86-8.43,2.51-1-.15-4.22-1.44-3.84,1.05-.18-1.23,3.6-3.33,4.24-3.64a16.89,16.89,0,0,1,9.74-1,13.15,13.15,0,0,1,4,1.13l1.94,1.4q1.57-1.44-.53,1.53c-3.67,5.27-12.59,7.26-18.35,4.45l.9,2.19-.2-1.07,0,5.42c1.23-7,9.47-8.46,15.34-8.13,3.92.23,13.91.77,14.91,5.75l-.29-5.41C61.58,69,55,71.2,51.77,71.76c-1.58.28-9.29.93-9.55-1.19l0,5.41c1.19-6.76,10-8.07,15.58-7.9a30.88,30.88,0,0,1,5.34.62c.38.08,5,1.63,5.17,1.53L69,68.34A9.72,9.72,0,0,1,67.39,71a11.11,11.11,0,0,1-4.32,3.25c-2.81,1.2-4.94.5-7.77.59l-.58,1.55A20.15,20.15,0,0,1,56,72.57a17.2,17.2,0,0,1,2.28-3.79,10.13,10.13,0,0,1,7.63-4c1.66-.1,8.49-.08,8.84,2.43l0-5.42c-.42,2.1-6.29,5.3-7.15,2.68-.4-1.24,3.54-3.24,4.47-3.47a5.14,5.14,0,0,1,3.62.29L75,60.05l.17.72-.28-5.41C74.63,58.2,72.44,60.72,70,62c-.76.39-4.17,2-4.68.52l.57,5c.09-2.36,2.77-4.62,4.72-5.41.91-.37,4-1.31,4.62-.35l-.21-8.61-.29.3c-1.57,1.64.4,9,.73,8.6l.29-.3c1.42-1.48.86-7.07-.21-8.61-1.87-2.7-7.77,1.23-9.15,3C64.05,59.25,63.66,63.87,64,67.6c.35,3.45,1.13,5.2,4.95,3.88a11.54,11.54,0,0,0,7-7.68c1.52-5.1,1.1-16.8-7.16-10.17C64.7,57,62.42,68.85,66.37,73.09c2.41,2.6,7.39.62,9-2s1.43-6.66.78-9.53c-1.77-7.92-13.71-6.87-18.18-1.86s-6.82,14.54-5,21c1,3.68,5,3.91,8.3,3.14a12.84,12.84,0,0,0,9-7.79,19.28,19.28,0,0,0,1-10.09c-.68-3.95-2.86-4.77-6.6-5.76C56.89,58.12,44,58.27,41.08,67.69A17.72,17.72,0,0,0,41,77.3c1.15,3.65,5.26,3.81,8.6,3.65,8.76-.41,15.08-5.89,14.31-14.79-.79-9.09-10.67-10.3-18.31-10.36-8.72-.08-15.42,4.91-15.2,14,.09,3.48.23,5.62,3.84,6.3a17.46,17.46,0,0,0,13.37-2.62c5.46-4,6.92-12.74,4.61-18.92-3.18-8.5-18.11-7.5-22.57-.65-2,3-2.16,7.16-1.64,10.63.65,4.31,3.58,5.81,7.85,6,8.85.43,11.64-9.91,8.7-16.92-2.73-6.5-19.56-8.67-22.71-2-.53,1.12-1,8,.7,8.31,9.55,1.7,21.37,1.56,20.89-10.81-.19-5-2-6.84-6.73-8.18-4.95-1.41-13.64-3.57-18.07.4-2.33,2.09-3,8-1.58,10.81,2,4,12.6,3.47,16.52,3.46,4.35,0,10.28-.12,11.94-5,1.08-3.21.73-8.78-1.7-11.3-3.4-3.54-10.44-4.85-15-5.58-3.58-.57-12.37-1.94-13.81,2.52-.82,2.56-.5,7.42,1.69,9.1,1.8,1.39,5.24,1.85,7.35,2.42,3.57,1,7.91,2.16,11.56.91,6.65-2.27,7.87-14.48,1.76-17.89-3.63-2-11.46-4.58-15.43-2.35-3.48,1.95-3.28,8.24-2,11.53,1.8,4.64,10.65,5.51,14.89,6.4,5.3,1.11,9.82-.16,10.54-6,.65-5.16-.32-10.58-5-13.44-5.77-3.5-13.55-4.48-20.14-5.07-1.12-.1-1.48,8.78.22,8.93Z"/><path class="cls-2" d="M69.13,69.2c-7.72-1.47-15.8-1.75-23.27-4.36A31.25,31.25,0,0,1,28.2,49.24c-.83-1.64-1.21,1-1.3,1.64-.25,1.72-.32,4.47.5,6.1A33,33,0,0,0,43,72.52c8.22,3.82,17.61,3.94,26.39,5.61.85.16,1.67-8.57-.22-8.93Z"/><path class="cls-2" d="M31.11,58.6A92.83,92.83,0,0,0,56.82,74.84c2,.85,9.29,4.69,11,2.81,1.58-1.7.62-6.71-.13-8.58s-1.23,1.17-1.29,1.64a12.64,12.64,0,0,0,.5,6.1l.16.41,0-8.17c-1.48,2.08-16.2-5.73-18.11-6.74A90.81,90.81,0,0,1,31.42,50c-.4-.35-2,7.12-.31,8.63Z"/><path class="cls-2" d="M62,64.66c-10.56-4.34-22.36-5.81-31.81-12.59-.62-.44-2.05,7.38-.31,8.63,9.65,6.92,21.56,8.47,32.34,12.89.3.12,1.91-8.06-.22-8.93Z"/><path class="cls-2" d="M42.48,32.82a43.65,43.65,0,0,0-5.22,2.47c-.46.26-.56.85-.66,1.33a14,14,0,0,0-.2,3.16c0,.3.44,4.8,1.08,4.45a43.71,43.71,0,0,1,5.22-2.48c.45-.18.57-.93.65-1.32a13.46,13.46,0,0,0,.21-3.17c0-.34-.32-4.74-1.08-4.44Z"/><path class="cls-2" d="M20.39,34.91c-5.5,0-9.09,3.83-9.33,9.16-.07,1.62-.32,4.5.79,5.92,1.6,2,6,2,8.22,2l-1-3.26c.49,5.57,2.82,8.13,8.06,10l-.22-8.94C22,48.3,13.94,44.11,11.77,51.52c-.49,1.68-1.19,7.27.7,8.32,3.39,1.88,7.1,1.91,10.84,2.52,3.13.51,9.85,1,12,3.65l-.61-7.45c-.19,1.15-6.5-1-6.87-1.07-2.13-.61-3.86-1.41-5.9-.19C19,59,18.88,63.12,19,66.11c.14,2.83.64,6.25,3.39,7.73,2.16,1.16,5,.46,7.33.44a39.36,39.36,0,0,1,9,1c1,.21,1.36-8.09-.22-8.93-5.35-2.84-11.48-3.17-17.39-3.95l1.08,4.44,0-1-.61,4.33c1.42-1.35,5.75-1.73,6.33.82l-.29-5.41L27,66c-1.08,1-1.15,8.31.47,8.77,6.3,1.8,15.85,3.82,21.61-.33,1.06-.76,1-8.78-.47-8.77A147.85,147.85,0,0,0,32,66.75c-1.63.2-1,9.08.22,8.93a147.83,147.83,0,0,1,16.69-1.09l-.48-8.77c-5.43,3.9-15.22,1.68-21.1,0l.48,8.77c2.7-2.36,2.49-9.69.49-12.44-1.31-1.79-4.38-2.79-6.37-1.45s-1.61,4.11-1.57,6.22c0,.69,0,4.3,1.09,4.44,5.91.79,12,1.11,17.39,4l-.22-8.93A44,44,0,0,0,27,65.46c-1.44.06-3.32-.68-4.49-.59q-2-1.58-.84,1.74a3.5,3.5,0,0,1,2.38-1.06c3.8-.51,11,5.61,12.14-.71.8-4.29.42-7.71-3.83-9.17C26,53.47,18.15,54.18,12.25,50.9l.7,8.32c1.84-6.31,10.47-1.63,14.16-.53.59.17,1.76-8.24-.22-8.94-1.16-.41-5.88-1.89-6-3.47,0-.45-.18-3.27-1-3.25-2.44,0-5.65-.08-7.69-1.66L13,46.84a25.15,25.15,0,0,0,3.69-2.35,9.13,9.13,0,0,1,3.94-.64c1.33,0,1.31-8.92-.22-8.94Z"/><path class="cls-3" d="M78.54,45.1l.31,12.62L79,64.15l0,1.61a2.32,2.32,0,0,1-.81,1.8,2.38,2.38,0,0,1-.9.48,2.26,2.26,0,0,1-.51.08h-.41l-1.59,0c-8.48.09-17,.28-25.43.3L24,68.56h-2a2.58,2.58,0,0,1-.62-.09,2.7,2.7,0,0,1-1.09-.56,2.8,2.8,0,0,1-1-2.16V64.17l0-6.35.06-12.72v-.91h.9L35,44.29l14.66.24,14.55.27Zm0,0-14.78.3-14.61.27-14.5.24L20.23,46l.9-.9.06,12.72,0,6.35v1.59a.82.82,0,0,0,.29.64.71.71,0,0,0,.31.16.86.86,0,0,0,.17,0H24l25.44.11c8.47,0,17,.21,25.43.3l1.59,0h.38a.84.84,0,0,0,.27,0,1.22,1.22,0,0,0,.5-.24,1.3,1.3,0,0,0,.48-1l0-1.56.16-6.29Z"/><path class="cls-3" d="M78.54,45.1l-14.33.37-14.55.31c-9.75.18-19.6.29-29.43.3a1,1,0,0,1-1-1,1,1,0,0,1,.43-.81h0q6.6-4.39,13.26-8.73c4.42-2.92,8.87-5.78,13.31-8.66l0,0a4.88,4.88,0,0,1,1.4-.64A9.26,9.26,0,0,1,49,26a12.35,12.35,0,0,1,2.65,0,20.73,20.73,0,0,1,5,1.27,45.15,45.15,0,0,1,4.56,2.11l4.39,2.27c2.92,1.53,5.87,3,8.67,4.85A9.74,9.74,0,0,1,78.54,45.1Zm0,0a9.92,9.92,0,0,0-1.34-4.66,10.17,10.17,0,0,0-1.44-1.94,8.24,8.24,0,0,0-1.9-1.45C71,35.41,68,34.11,65,32.69l-4.48-2.1a48,48,0,0,0-4.47-1.91,19.38,19.38,0,0,0-4.62-1,11.52,11.52,0,0,0-2.28.05,7.25,7.25,0,0,0-1.07.24,4.66,4.66,0,0,0-.84.37l-.05,0c-4.4,2.95-8.78,5.92-13.2,8.83S25.2,43,20.77,45.92l-.54-1.8c9.6,0,19.19.12,28.88.3l14.6.31Z"/><path class="cls-3" d="M20.23,51c4.86-.41,9.72-.63,14.58-.78S44.53,50,49.39,50,59.1,50,64,50.17s9.72.36,14.58.78c-4.86.42-9.72.63-14.58.78s-9.71.2-14.57.22-9.72-.06-14.58-.22S25.09,51.36,20.23,51Z"/><path class="cls-3" d="M20.23,59.8c4.86-.41,9.72-.63,14.58-.78s9.72-.2,14.57-.22S59.1,58.86,64,59s9.72.36,14.58.78c-4.86.42-9.72.63-14.58.78s-9.72.2-14.58.22-9.71-.06-14.57-.22S25.09,60.21,20.23,59.8Z"/><path class="cls-3" d="M29.65,38.74a9.65,9.65,0,0,0,1.23,2.17,4.22,4.22,0,0,0,1.87,1.44A3,3,0,0,0,35,42.29a2.1,2.1,0,0,0,1.14-1.68,9,9,0,0,0-.05-2.37,5.7,5.7,0,0,1,.26-2.79,3.24,3.24,0,0,1,1-1.25,2.46,2.46,0,0,1,1.62-.55,2.59,2.59,0,0,1,1.57.68,7.13,7.13,0,0,1,1,1,27,27,0,0,1,2.51,4.52,7.52,7.52,0,0,0,1.24,1.81,1.62,1.62,0,0,0,.72.38A6.06,6.06,0,0,0,47,42.2,5,5,0,0,0,49,42c.47-.2.64-.48.75-1.21a24.78,24.78,0,0,0,0-4.79c-.07-.81-.19-1.62-.32-2.43l-.22-1.21-.12-.62c0-.11,0-.17-.06-.33A2.63,2.63,0,0,1,49,31a2.9,2.9,0,0,1,.64-1.75,4.23,4.23,0,0,1,1.22-1,3.82,3.82,0,0,1,.78-.36,1,1,0,0,1,.31-.06h.58a5.67,5.67,0,0,1,1.49.14,5.32,5.32,0,0,1,2.57,1.6A8.65,8.65,0,0,1,58,31.85c.69,1.59,1.28,3.12,1.9,4.69a16.53,16.53,0,0,0,2.22,4.26A5.3,5.3,0,0,0,66,42.92a4.36,4.36,0,0,0,3.73-2.36,14.39,14.39,0,0,0,1.44-4.73,12.67,12.67,0,0,1-1,5,6,6,0,0,1-1.62,2.09,4.41,4.41,0,0,1-2.55,1,6.36,6.36,0,0,1-4.87-2.24,16.52,16.52,0,0,1-2.66-4.51l-2.06-4.57a7,7,0,0,0-1.2-1.88,3.5,3.5,0,0,0-1.67-1,4.45,4.45,0,0,0-1-.06H52c.06,0,.2,0,.16,0a2.35,2.35,0,0,0-.36.18c-.58.34-.93.82-.9,1.14,0,.05,0,.1,0,.14l.06.28.13.63.24,1.26c.14.84.28,1.7.36,2.56a26.43,26.43,0,0,1,0,5.26,3.94,3.94,0,0,1-.53,1.58,3,3,0,0,1-1.42,1.15,6.33,6.33,0,0,1-2.93.25,8.42,8.42,0,0,1-1.42-.24A3.36,3.36,0,0,1,44,43a8.34,8.34,0,0,1-1.56-2.35,33,33,0,0,0-2.2-4.37c-.44-.61-1-1.22-1.38-1.21a1.56,1.56,0,0,0-1.32.92,4.62,4.62,0,0,0-.3,2.17,9.27,9.27,0,0,1-.14,2.65,3.52,3.52,0,0,1-.61,1.3,2.87,2.87,0,0,1-1.18.86,3.59,3.59,0,0,1-2.7-.14,4.58,4.58,0,0,1-1.93-1.76A9.93,9.93,0,0,1,29.65,38.74Z"/></g></svg>