<svg xmlns="http://www.w3.org/2000/svg" viewBox="0 0 100 100"><defs><style>.cls-1{fill:#fff;}.cls-2{fill:#f5afac;}.cls-3{fill:#1d1d1b;}</style></defs><title>pImg01</title><g id="Layer_1" data-name="Layer 1"><rect class="cls-1" width="100" height="100"/><rect class="cls-1" x="99.99" width="100" height="100"/><rect class="cls-1" y="100" width="100" height="100"/><rect class="cls-1" x="99.99" y="100" width="100" height="100"/></g><g id="Layer_3" data-name="Layer 3"><path class="cls-2" d="M30,14.55c-1.38,4.58-1.45,11.55,3.92,13.32,4.26,1.41,9.51,1.34,14,1.48,2.43.08,12.17-1.72,13.52,1.06l-.37-7c-.76,3.94-22.3,1.7-25.69,1.82-6.07.22-11.91,0-12,7.26-.07,6.38,2.66,8.12,8.88,7.6,4.2-.35,21.81-6.64,24.1-1.4l-.5-6.1c-.33,2.78-21.35.2-24.18.64-6.54,1-7.63,6.6-7,12.35.07.64.1,3.07,1,3.26,6.8,1.42,13.13-.59,19.79-1.82,2.88-.53,18.72-3.2,19.57,1.39L65,43C64,47.55,47.27,45.09,44.12,44.79c-3.82-.36-7.62-.85-11.45-1.15-2.71-.22-6.58-1-8.93.81-2.8,2.18-2.48,7.57-1.61,10.63,1.46,5.08,7.44,5.06,11.91,5.35a36.75,36.75,0,0,0,9.06-.68A41.64,41.64,0,0,1,47.83,59c-.42,0,3.78-.27,2,.19-4.65,1.17-11.5-6.29-15.29-1.95-1.94,2.23-2,8.51-.56,10.94,2.94,5.06,15-2.21,17.91,4l-.5-6.1c-.15,1.72-7.4,0-7.93-.1-3-.67-6.13-1.63-8.4-3.85-1.6-1.56-2.41-4.27-4.89-4.64a4.66,4.66,0,0,0-4.52,2.36c-1.48,2.56-1.46,8.44.1,10.91,1.38,2.2,4.2,1.86,6.53,2.25.89.15,12.53,2.14,12.58,2.41l.42-6.57c-3.41,3.5-16.34,1.32-15.23-5,.18-1,.77-7.5-.87-7.61C25,56,19,55.52,15.2,57.73c-3.12,1.83-3.25,6-2.84,9.26.47,3.75,1.91,5.1,5.35,6.53a28.59,28.59,0,0,0,7.2,2c2.3.31,6.85-.57,7.89,2.31l-.19-7.72c-.86,3-15.19-2.62-15.75-5L17,71.38c.78-3.7,6.79-.61,6.41-4.32L23.74,62c-1.3,4.64-5.21,13.2.65,16.42,6.33,3.48,14.53.28,18.32-5.37.93-1.41.7-3.93.54-5.52,0-.33-.67-4-1.27-3.09a13.87,13.87,0,0,1-8.71,6c-1.76.39-9.69.9-10.25-1.86L23.31,74c.24-2.4,1.86-4.47,2-7a16.21,16.21,0,0,0-.92-6.52.79.79,0,0,0-.51-.6c-6.7-.38-9.1,3.38-8.53,9.56.2,2.21.5,4,2.24,5.37C20.41,77.14,26.34,79.3,29.9,80c5.35,1.06,5.29-7.92,3.27-11.11-1.56-2.47-4.28-1.94-6.82-2.15-2.75-.24-11.71-1.37-12.53-4.67l0,7c1.34-5.15,11.49-4.2,15.58-3.92l-.88-7.61c-.92,5.23-1.39,11.76,1.15,16.64s9.27,6.13,14.14,4.5c3.49-1.18,3.92-7.39,2.08-10.38-1.5-2.43-5.64-2.6-8.1-3.14C34.53,64.47,28,64.83,26,62.12l.76,3.1-.15-1.31L26.31,69c1-3.54,4.5-2.8,6.39-.85,1.7,1.76,2.69,3.53,5,4.76,3,1.58,11.19,4.68,14.17,1.92,2.39-2.2,1.86-9.13.19-11.62-1.2-1.79-2.91-2.11-5-2.27-.93-.08-12.24-.38-12.14.17l0,5.42c.95-4.76,12.72,3.48,16.14,1s2.35-9.41,1.74-12.76c-1.09-6-4.66-4.92-9.95-4a37.77,37.77,0,0,1-9.9.62c-1.28-.11-9.19-.43-9.58-2.56L23.2,55c1.41-4.7,10.21-2.41,13.51-2.08,5.08.5,10.14,1.17,15.25,1.33,3.56.11,10,.91,12.94-1.59,1.71-1.44,1.84-3.88,1.87-6s-.14-5.3-1.65-7.15c-2.5-3.06-8-2.52-11.53-2.4-9.45.31-18.7,4.73-28.16,2.75l1,3.26c.2,2,4-.77,5.44-1a24.71,24.71,0,0,1,4.47-.08c4.31.11,8.62.37,12.94.52,6.15.22,8.58-1.49,8.42-7.81s-3.61-7.24-9.4-6.54c-3,.36-22.3,6.08-23.37,1.62l0,7c1.14-3.37,9.89-2.74,12.5-2.78,3.74-.06,7.47.1,11.2.14,3.18,0,9.14.94,12-.91,1.77-1.13,1.93-3.15,2.08-5.1.38-5.2-.78-8.1-6.27-7.92a122.48,122.48,0,0,1-12.71-.1c-2.1-.14-12.31-.09-12.69-3l-.2,6.12.32-1.06a13.33,13.33,0,0,0,.2-6.12c-.1-.51-.83-3.4-1.38-1.57Z"/><path class="cls-3" d="M68.48,52.06v0h0l-.42.56h0a1.55,1.55,0,0,1-1.38.61,4.72,4.72,0,0,0-1.55.21,3.43,3.43,0,0,0-1.31.84c-.37.36-.65.82-1,1.18a3.09,3.09,0,0,1-1.37.81,2.3,2.3,0,0,1-1.59-.17A6.61,6.61,0,0,1,57.49,54a4,4,0,0,0-1.07-1.07,2.68,2.68,0,0,0-1.4-.36,21,21,0,0,0-3.1.41,2.81,2.81,0,0,1-1.74-.34,2.74,2.74,0,0,1-1.08-1.43c-.38-1-.51-2.2-1.17-2.45A16.49,16.49,0,0,0,45,48.06a7,7,0,0,1-1.66-.5,2.82,2.82,0,0,1-1.43-1.42,2.64,2.64,0,0,1-.22-1,8.1,8.1,0,0,1,0-.87,14.24,14.24,0,0,1,.24-1.65,3.36,3.36,0,0,0,.11-1.28,4.48,4.48,0,0,0-.46-1.21,6.07,6.07,0,0,1-.37-.73l-.2-.46-.13-.5a4.19,4.19,0,0,1,.16-2,9.33,9.33,0,0,1,1.87-3c.34-.41.68-.79,1-1.17a14.53,14.53,0,0,1,1-1.29,27.87,27.87,0,0,1,2.29-2.32,36.27,36.27,0,0,1,5.19-3.87c.46-.29.94-.56,1.43-.81a7.86,7.86,0,0,1,1.66-.62,13.28,13.28,0,0,1,9.76,1.25,18.2,18.2,0,0,1,5,4.08c.34.42.73.78,1,1.24l.92,1.34c.26.48.48,1,.72,1.46a11.61,11.61,0,0,1,.52,1.54,14.5,14.5,0,0,1,.2,6.35,23.51,23.51,0,0,1-2,6A31.78,31.78,0,0,1,68.48,52.06Zm0,0a26.5,26.5,0,0,0,4.93-11.45,13.49,13.49,0,0,0-.52-6.13,9.2,9.2,0,0,0-.58-1.42c-.25-.44-.48-.9-.75-1.33l-.93-1.2a14,14,0,0,0-1.06-1.12,16.91,16.91,0,0,0-4.93-3.55,12.48,12.48,0,0,0-5.77-1.17,11.62,11.62,0,0,0-2.88.46,5.27,5.27,0,0,0-1.27.52c-.44.25-.87.51-1.3.78a34.46,34.46,0,0,0-4.87,3.72,29.22,29.22,0,0,0-2.16,2.15c-.36.39-.61.71-1,1.16s-.71.86-1,1.25A8.21,8.21,0,0,0,42.8,37a2.24,2.24,0,0,0-.14,1.1l.05.28.12.26a5.19,5.19,0,0,0,.31.68,5.67,5.67,0,0,1,.57,1.77A5.12,5.12,0,0,1,43.48,43a11,11,0,0,0-.3,1.45,6.62,6.62,0,0,0-.06.7,1.4,1.4,0,0,0,.07.52c.18.62,1.1,1,2.07,1.27a15,15,0,0,1,3.15.92,2.09,2.09,0,0,1,.75.7,3.56,3.56,0,0,1,.35.85c.16.54.24,1.06.39,1.52A1.92,1.92,0,0,0,50.59,52a2.21,2.21,0,0,0,1.3.32A19.69,19.69,0,0,1,55.05,52a3.22,3.22,0,0,1,1.58.52,4.88,4.88,0,0,1,1.11,1.21A6.32,6.32,0,0,0,59.89,56a2.23,2.23,0,0,0,1.48.21,3,3,0,0,0,1.34-.74c.39-.34.67-.8,1.06-1.17a3.36,3.36,0,0,1,1.33-.83,4.64,4.64,0,0,1,1.57-.19,1.52,1.52,0,0,0,1.37-.6h0l.43-.55h0Z"/><path class="cls-3" d="M65.36,58.43a1.74,1.74,0,0,1-1.51.83,3.87,3.87,0,0,0-1.61.56A3.67,3.67,0,0,0,61.11,61a5,5,0,0,1-1.19,1.43,2.62,2.62,0,0,1-1.9.58,3.94,3.94,0,0,1-1.81-.74,10.49,10.49,0,0,1-1.38-1.26,4.49,4.49,0,0,0-1.2-1,4.27,4.27,0,0,0-3,.17,7.3,7.3,0,0,1-1.93.35,2.61,2.61,0,0,1-2.1-.95,6.13,6.13,0,0,1-.9-1.79A2.48,2.48,0,0,0,45,56.65a3.61,3.61,0,0,0-1.29-.32c-.56,0-1.15-.1-1.78-.18h0a5.07,5.07,0,0,1-2.81-1,2.8,2.8,0,0,1-.87-1.57,8.31,8.31,0,0,1-.07-1.44c0-.9.23-1.88.18-2.39a4.21,4.21,0,0,0-.83-1.81,4.05,4.05,0,0,1-.6-3.12,7.75,7.75,0,0,1,1.2-2.59c.49-.74,1-1.4,1.4-2L41.09,38,42,36.72l.8,1.64c.06.13.12.26.17.4s.19.37.28.56a6.31,6.31,0,0,1,.51,1.35,3.89,3.89,0,0,1,0,1.59c-.08.49-.19.86-.26,1.23a8.33,8.33,0,0,0-.16,1.1,2.51,2.51,0,0,0,0,.85,1,1,0,0,0,.35.49,2.66,2.66,0,0,0,.81.4,20.39,20.39,0,0,0,2.26.54,10.29,10.29,0,0,1,1.32.37,3.13,3.13,0,0,1,.74.39,2.62,2.62,0,0,1,.66.72,14.39,14.39,0,0,1,.81,2.47c.24.63.46.84,1,.93a10.22,10.22,0,0,0,2.22-.2,5.42,5.42,0,0,1,2.8.28,3.62,3.62,0,0,1,1.22.91,11.67,11.67,0,0,1,.78,1,5.76,5.76,0,0,0,1.49,1.57,1.71,1.71,0,0,0,1.74.17,3.06,3.06,0,0,0,.84-.59,4.73,4.73,0,0,0,.37-.4,6.48,6.48,0,0,1,.44-.49,3.88,3.88,0,0,1,2.44-1.17c.44,0,.91,0,1.22,0a1.09,1.09,0,0,0,.77-.34l.05-.08.43-.52,1.28-1.55-.74,1.83A29.07,29.07,0,0,1,65.36,58.43Zm0,0a30,30,0,0,0,1.57-3.16A31.26,31.26,0,0,0,68.18,52l.54.28-.41.58,0-.07a1.7,1.7,0,0,1-1.27.83c-.5.06-.85,0-1.22.11a2.93,2.93,0,0,0-1.8,1,3.84,3.84,0,0,0-.35.43c-.13.18-.28.35-.43.52a4.17,4.17,0,0,1-1.11.86,2.93,2.93,0,0,1-2.91-.1,6.55,6.55,0,0,1-2-1.84,3.79,3.79,0,0,0-1.46-1.4,4,4,0,0,0-2-.07,10.14,10.14,0,0,1-2.62.29,3,3,0,0,1-1.58-.63,3.58,3.58,0,0,1-.91-1.36A19.44,19.44,0,0,0,48,49.29c-.07-.23-.78-.45-1.55-.59A19.54,19.54,0,0,1,44,48.15a4.77,4.77,0,0,1-1.37-.69,2.92,2.92,0,0,1-1-1.46,4.25,4.25,0,0,1-.1-1.58,9.82,9.82,0,0,1,.18-1.31c.08-.43.19-.84.24-1.16a1.92,1.92,0,0,0,0-.83,4.78,4.78,0,0,0-.37-.92l-.27-.53L40.91,39l1.73.33L41.25,41.2c-.49.8-1,1.44-1.45,2.09a5.88,5.88,0,0,0-.94,1.9,2.12,2.12,0,0,0,.31,1.66,5.72,5.72,0,0,1,1.11,2.74A7.35,7.35,0,0,1,40.17,51c-.06.4-.1.77-.12,1.16a6,6,0,0,0,0,1,1,1,0,0,0,.29.59,3.6,3.6,0,0,0,1.84.63h0l1.74.22a4.52,4.52,0,0,1,2.07.71,3.87,3.87,0,0,1,1.08,1.89,5.32,5.32,0,0,0,.6,1.4c.41.64,1.43.54,2.56.25a11.06,11.06,0,0,1,1.87-.31,3.67,3.67,0,0,1,2,.43,5.42,5.42,0,0,1,1.43,1.33,9.66,9.66,0,0,0,1.15,1.23,3.13,3.13,0,0,0,1.38.7A2,2,0,0,0,59.56,62a4.59,4.59,0,0,0,1.15-1.21,4,4,0,0,1,1.35-1.25,4,4,0,0,1,1.77-.44A1.65,1.65,0,0,0,65.36,58.43Z"/><path class="cls-3" d="M55.71,61.27c-1.44,1.65-3.08,3.51-4.6,5.18S48,69.86,46.44,71.56l-4.74,5-2.39,2.5-1.2,1.25L37.5,81a2.89,2.89,0,0,1-1,.68,2.94,2.94,0,0,1-3.88-2.3,3.18,3.18,0,0,1,.08-1.24l.22-.84.43-1.68q.87-3.35,1.79-6.68c1.2-4.45,2.46-8.89,3.73-13.32l0-.12,0-.08h0l-.08.2.34-1.18.33-1.13.89.69a4.14,4.14,0,0,0,1.78.6h0c.65.11,1.34.16,2.07.3a5.07,5.07,0,0,1,1.16.35,2,2,0,0,1,.61.39,2.53,2.53,0,0,1,.41.55,17.28,17.28,0,0,1,.76,2,1.69,1.69,0,0,0,1.08,1.15,4,4,0,0,0,1.86-.08,10.93,10.93,0,0,1,2.14-.3,3,3,0,0,1,2.05.69A12.09,12.09,0,0,1,55.71,61.27Zm0,0a13.25,13.25,0,0,0-1.53-1.39,2.81,2.81,0,0,0-1.88-.43,11.1,11.1,0,0,0-1.95.48,4.79,4.79,0,0,1-2.26.29A2.23,2.23,0,0,1,47,59.64a3.09,3.09,0,0,1-.7-1,16.67,16.67,0,0,0-.82-1.83.85.85,0,0,0-.51-.41,3.82,3.82,0,0,0-.85-.19L42,56h0a5.42,5.42,0,0,1-2.51-.77l1.22-.43L40.4,56l0,.08-.06.11h0L40.4,56Q38.75,62.75,37,69.44q-.87,3.34-1.79,6.68l-.45,1.67-.22.83a1,1,0,0,0,0,.47,1.06,1.06,0,0,0,1.33.82,1,1,0,0,0,.39-.24l.61-.59,1.24-1.21,2.47-2.42,5-4.79c1.68-1.59,3.35-3.17,5.06-4.73S53.9,62.91,55.71,61.27Z"/><path class="cls-3" d="M51.58,59.29a3.46,3.46,0,0,1,1,1.1,4.08,4.08,0,0,1,.48,1.22,3.82,3.82,0,0,1,.06,1.31,3.39,3.39,0,0,1-.49,1.43,3.45,3.45,0,0,1-1-1.1A3.61,3.61,0,0,1,51.15,62a4.08,4.08,0,0,1-.07-1.31A3.51,3.51,0,0,1,51.58,59.29Z"/><path class="cls-3" d="M47.27,69.8a19.15,19.15,0,0,1-1.42-3.4,31.13,31.13,0,0,1-1.31-7.08,17.57,17.57,0,0,1,.12-3.68A18.48,18.48,0,0,1,46.09,59a30.41,30.41,0,0,1,1.3,7.08A17.57,17.57,0,0,1,47.27,69.8Z"/><path class="cls-3" d="M37.63,63.23a15.08,15.08,0,0,1,1.68,2.92,23.94,23.94,0,0,1,1.87,6.27,14.93,14.93,0,0,1,.19,3.36,14.29,14.29,0,0,1-1.69-2.91,24.21,24.21,0,0,1-1.14-3.08,24.58,24.58,0,0,1-.73-3.19A15,15,0,0,1,37.63,63.23Z"/><path class="cls-3" d="M45.54,71.55A10.89,10.89,0,0,1,43,72.83a17.36,17.36,0,0,1-2.63.72,16.28,16.28,0,0,1-2.71.29,10.56,10.56,0,0,1-2.82-.26,10.76,10.76,0,0,1,2.53-1.28,17,17,0,0,1,5.34-1A10.87,10.87,0,0,1,45.54,71.55Z"/><path class="cls-3" d="M37.25,64.67a24.87,24.87,0,0,1,4-2c1.38-.55,2.77-1,4.18-1.45s2.84-.75,4.29-1a26.24,26.24,0,0,1,4.46-.49,24.61,24.61,0,0,1-4,2c-1.37.55-2.76,1-4.17,1.45s-2.85.75-4.3,1A25.16,25.16,0,0,1,37.25,64.67Z"/><path class="cls-3" d="M39.61,55.82v0h0a2,2,0,0,1,.46-.88,1.12,1.12,0,0,1,.57-.33,1,1,0,0,1,.66.08,2.07,2.07,0,0,1,.77.64,2.14,2.14,0,0,1-.45.9,1.22,1.22,0,0,1-.57.34,1.11,1.11,0,0,1-.66-.09,1.89,1.89,0,0,1-.77-.62h0Z"/></g></svg>