<svg xmlns="http://www.w3.org/2000/svg" viewBox="0 0 100 100"><defs><style>.cls-1{fill:#fff;}.cls-2{fill:#cd91b2;}.cls-3{fill:#1d1d1b;}</style></defs><title>pImg01</title><g id="Layer_1" data-name="Layer 1"><rect class="cls-1" x="-99.99" width="100" height="100"/><rect class="cls-1" width="100" height="100"/><rect class="cls-1" x="-99.99" y="100" width="100" height="100"/><rect class="cls-1" y="100" width="100" height="100"/></g><g id="Layer_3" data-name="Layer 3"><path class="cls-2" d="M25,43.48a48,48,0,0,1,10.92-3.84c2.84-.6,8.4-2,11,.08,1.73,1.42-.88.9-2.38,1-2.15.18-4.3.25-6.45.3-1.46,0-11.87.92-12.36-.69L25.18,48c1.63-.87,16.86-7.15,17.47-2.64l0-5.42c-.52,3.3-11.74,5.8-12.18,2.87l-.2,6.12c1.44-3.43,10.81-3.45,13.76-3.51,4-.08,10.57.26,13.23,3.71L56.52,46l.08,1,.33-5c-1.24,2.94-8.57,2.53-11.16,2.65-3.53.17-7.27-.47-10.74-.11-4.39.45-4.69,4.56-4.5,8.29.2,4.08,1.28,7.65,5.7,8.64,6.54,1.45,13.82-1.71,19.46-4.64,1.39-.72,1.39-8.73-.22-8.94-8.61-1.13-17.25-2.46-25.9-3.3-6.26-.6-9.38,1.54-9.46,7.87-.08,5.61,1.5,8.14,7.24,8.46,6.9.39,13.57-.51,19.39-4.41,1.12-.75,1-8.51-.48-8.77-6.69-1.14-15-1.2-21.22,2-4.35,2.26-4.22,7.84-4,12.16.09,1.76.11,4.58,1.45,5.93,2,2,6.81,1.53,9.22,1.38,5.66-.36,14-2.29,17-7.68.58-1,1.38-8.6-.48-8.77-6-.54-13.64.08-18.06,4.8-3.16,3.36-3.31,8.85-2.58,13.17.82,4.8,3.88,8,9.08,6.4s8.91-6.52,10.34-11.66c.38-1.34,1.21-7.77-.69-8.31C38,54.74,31.88,60.89,31.24,68.93c-.16,1.94-.58,6.5,1.09,8,2.51,2.24,8.26-.49,10.75-1.68,7.09-3.39,12.23-8.75,12-17C55,55,54.89,52.67,51.41,52A16.77,16.77,0,0,0,39.85,54.2C33,58.41,31.65,67.67,33.44,75c2.22,9,13.43,1,18.08-2.11,3-2,5.84-4.23,6.9-7.8.79-2.68,1.19-7.6-.34-10.11s-4.81-1.32-6.84.31c-3.35,2.68-5,7.25-5.67,11.34a31.55,31.55,0,0,0-.08,10.75c.71,3.87,2.58,5.49,6.58,6,8,.9,13.31-4.7,13.36-12.39,0-2.36-.11-5.67-2.45-6.92-2.07-1.1-5.47-1.17-7.71-1.49a36.9,36.9,0,0,0-9.21-.32c-8,.88-14.78,6.12-15.77,14.37-.74,6.11.3,15.81,8.76,13.12,3-1,7.5-3.32,9-6.32,1-2,1.23-7,0-9-1.38-2.27-4.89-1.78-6.9-.71-3,1.61-4.14,4.64-4.3,7.87-.11,2.13-.26,5.9,1.62,7.28,2.76,2,9.27.77,12-.83,4.57-2.67,7.49-14.38.86-16.31C41.93,69,37.27,76.61,39.2,84.9c.95,4.09,3.85,5.64,8,5,4.49-.67,5.66-2.84,5.68-7,0-3.48-.35-7.64-4.65-7.91s-13.39,6-16.39-.13l.5,6.11c.15-1.37,2.45-3.22,3.17-4.42a20.7,20.7,0,0,0,2.22-5.27,24.59,24.59,0,0,0,.72-9.39c-.22-1.86-.54-4.81-2.44-5.79s-3.84,1.3-5.14.8c-.58.53-.75.31-.51-.67,0-.63-.05-1.27-.06-1.9,0-1.58,0-3.16,0-4.75,0-.84,0-4.11-1.09-4.44-4.63-1.36-6.25,2.52-6.48,6.41a17.45,17.45,0,0,0,.46,5.53c.62,2.31,2.4,3.28,3.28,5.42l-.57-5c0,1.24-3.59,3.2-4.5,4.06a8.72,8.72,0,0,0-2.5,4c-.8,2.82-.89,7.28.52,9.94,1.75,3.29,6,2.89,9.14,2.7a67.75,67.75,0,0,0,17.08-3.4l-.7-8.32c-1.55,4.11-14.58.19-17.22-.68l.22,8.93a56.5,56.5,0,0,1,6-2.58l-.22-8.94c-4.95,2.4-6.13,6.27-5.43,11.61.76,5.85,4.92,6.75,10.15,7.71l-.22-8.93c-3.51,2.06-7.92,1.75-9.28,6.25-.65,2.16-1,7.16.59,9.07,2.21,2.71,9.28,0,12-.79,3.22-.93,12.79-5.41,15.85-3l-.82-4.29c0-1-1,3.49-1,3.41-.18.85-.59,7.75.88,7.61C63,91.19,66.74,86.23,70,81c.58-.91,1.14-8.94-.47-8.77a105.58,105.58,0,0,0-14,2.46c-3.06.76-7.9,1.19-9.46,4.31-.54,1.07-1.43,8.59.47,8.77A134.71,134.71,0,0,0,63,88.39l-.22-8.93c-3.15.36-6.3.69-9.45,1.08-1.76.22-3.41.15-4.5,1.69S47.53,90,49.3,91c6.67,3.6,14.84.82,19.83-4.46,4.42-4.69,5-11.55,3.29-17.54,0-.1-.31-1.37-.72-1.3-6.58,1.13-12.63,6.41-19.46,3.64-.31-.12-1.91,8.08.22,8.94,6.8,2.76,12.9-2.52,19.46-3.64l-.72-1.29c-.6-2.07-.21-.8-1.32.8a15.51,15.51,0,0,1-2,2.34,19.64,19.64,0,0,1-6.78,4.2,14.09,14.09,0,0,1-12-.63l.47,8.77c1.19-1.69,4.1-1.37,5.88-1.57L63,88.39c1.52-.17,1.15-9-.22-8.93a136.75,136.75,0,0,1-16.44-.6l.48,8.77c1.53-3,7.77-3.72,10.8-4.42a105.94,105.94,0,0,1,12.16-2l-.48-8.77c-3.17,5-6.71,9.84-13.07,10.44l.88,7.61c.72-3.42,4.18-14.68-2-14.68-2.55,0-24.32,7.23-24.94,4.71l0,7c1.05-3.42,5.65-3.44,8.32-5,1.35-.79,1.45-8.62-.22-8.93-2.34-.43-7.68-.81-8.47-3.7l.29,5.41c.11-1.39,2.87-2.66,3.9-3.16,1.84-.9.4-9.16-.22-8.94a54.6,54.6,0,0,0-6,2.59c-1.48.74-1.39,8.4.22,8.93,4,1.33,16,5.17,18.17-.56.31-.82.55-8.72-.69-8.31-3.76,1.24-24.06,7.54-25.39,1l.16,6.32c.57-3.11,3.91-4.11,5.72-6.34a9.48,9.48,0,0,0,1.86-5.17,18.3,18.3,0,0,0-.29-6.26c-.58-2.21-2.78-3.33-3.2-5.38l.28,5.41c.28-2.25,3.54-1.8,4.87-1.41l-1.08-4.44c0,3.1-1.41,14,2.31,15.78,1,.51,2.38-.28,3.31-.52,2-.53,2.43-1.07,1.95.83-.8,3.18-4,5-5,8-1.09,3.36-1.06,9.41,2.26,11.52,5.32,3.38,15.28-5.07,18.57.7L51,81.68v1.24l.61-4.32c-1.86,2.78-10,4.32-11.14,0L40.71,84c.34-4.65,11.07-4.86,13-1.81L53,79l.08,1L53.39,75c-.81,3.15-3.68,4.85-6.72,5.42-.81.16-8,.33-8,0l-.2,6.13c1-3.49,5.73-6.58,9.1-4l-.82-5.48v.78l.6-3.14a15.74,15.74,0,0,1-10.58,6.52A5.32,5.32,0,0,1,34,81q-1.68-2.55-1.71-.7c-.11-1.6,2.71-4.21,3.82-5.16C39.75,72.1,44.39,71,49,70.92c2.71,0,14,0,15,3.27l-.5-6.1c-.36,3.25-4.53,5.49-7.25,6.07-2.1.45-8.52.78-9.07-2.12-.6-3.13,4-8.43,6.81-9.36a5.52,5.52,0,0,1,2.61-.27l-.72-2.5c-.08,0-3.33,3.05-3.76,3.36a49.13,49.13,0,0,1-10.84,6c-2.43,1-8.29,2.52-5-2.44,3.43-5.13,11.94-8,17.66-5.06l-.72-1.29.21,1-.29-5.41c-.87,6.74-11.12,11.61-17,12.41a11.13,11.13,0,0,1-2.31.16q-2.67-.73-.66,3.56c.8-.37,2-3.49,2.87-4.27,3-2.6,6.82-2.9,10.47-1.86l-.7-8.31a15,15,0,0,1-5.79,8.51c-3.71,2.67-5.93,2.46-9.89,1.08q-1.57,2.22-.31.23a5.82,5.82,0,0,1,1.53-2A13.31,13.31,0,0,1,36.15,63a28.23,28.23,0,0,1,12.34-1.27L48,52.91c-2.17,3.9-7.33,5.64-11.48,6.6-2.66.61-9.61,2.19-11.85.41q-2.39,0,.57-1.27a27.4,27.4,0,0,1,2.67-1,36.68,36.68,0,0,1,5-1.19,40,40,0,0,1,13.58.14L46,47.86a25.6,25.6,0,0,1-12.65,4c-2.84.22-10.45,1.25-11.89-2.21l.57,5c.13-3.53,30.53,1.63,33.65,2l-.22-8.94a41.39,41.39,0,0,1-12.41,4.52c-2.26.37-10.35,1.37-10.8-2.47l0,5.42c.45-3,7.07-1.69,9-1.68,4,0,8.46.07,12.38-.8,4.91-1.09,5.31-4.64,4.75-9.23-.7-5.82-6.93-6.83-12.06-7.1-4.18-.21-13.94-.44-16.61,3.46-1.75,2.55-1.56,9.18.7,11.45,3.28,3.3,11.55,1.23,13.26-2.9,1.24-3,1.56-9.12-.68-11.75-3.83-4.49-14.1.21-18,2.29-1.63.88-.94,6.21-.5,7.65.67,2.17,1.44,2.79,3.66,3.15,4.07.65,8.8.21,12.91,0,2.45-.11,7.23.44,8.91-1.89,1-1.44.89-4,.9-5.62,0-4.41-.2-10.41-5.11-12.09-6.35-2.18-15.33,1.55-21,4.25-2.06,1-.07,9.08.22,8.94Z"/><path class="cls-2" d="M62.33,70.05Q50.22,67.89,38,66.27c-1-.14-1.58,8.69.21,8.93Q50.45,76.82,62.55,79c.89.16,1.66-8.6-.22-8.93Z"/><path class="cls-2" d="M21.6,73.62c4.87-.42,9.74-.73,14.62-1,1.47-.07,1.18-9-.22-8.93q-7.32.33-14.62,1c-1.55.13-1.07,9,.22,8.94Z"/><path class="cls-3" d="M32,51.44a22.24,22.24,0,0,0,2.56,1c.79.25,1.71.5,2.56.84a25.53,25.53,0,0,1,2.52,1.09c.84.41,1.64.85,2.51,1.36a6.76,6.76,0,0,1-3,.14,12.49,12.49,0,0,1-2.78-.72,11.79,11.79,0,0,1-2.59-1.33A4.85,4.85,0,0,1,32,51.44Z"/><path class="cls-3" d="M40.25,41.4a2.9,2.9,0,0,1,1.32-.47,3.12,3.12,0,0,1,1.19.11,3,3,0,0,1,1.06.55,2.83,2.83,0,0,1,.85,1.13,3.32,3.32,0,0,1-1.34.37A3.57,3.57,0,0,1,42.19,43a3.45,3.45,0,0,1-1-.52A3.28,3.28,0,0,1,40.25,41.4Z"/><path class="cls-3" d="M61.66,55.77A7.42,7.42,0,0,0,63,55.13c.42-.22.84-.47,1.27-.68a28.34,28.34,0,0,1,2.65-1.16,19.59,19.59,0,0,1,2.79-.84,8.76,8.76,0,0,0,1.3-.29,4.37,4.37,0,0,0,1.22-.72A2.75,2.75,0,0,1,71.59,53a4.94,4.94,0,0,1-1.33,1,17.78,17.78,0,0,1-2.65,1.24,15.2,15.2,0,0,1-2.87.79,10.87,10.87,0,0,1-1.52.13A3.14,3.14,0,0,1,61.66,55.77Z"/><path class="cls-3" d="M57,43a6.83,6.83,0,0,1,1.75-.91,9.06,9.06,0,0,1,1.75-.41,9.46,9.46,0,0,1,1.77-.1,7.84,7.84,0,0,1,1.93.3,4.37,4.37,0,0,1-1.6,1.24,6.31,6.31,0,0,1-1.82.53,6.65,6.65,0,0,1-1.89,0A4.9,4.9,0,0,1,57,43Z"/><path class="cls-3" d="M74.66,57.57a12.56,12.56,0,0,1-1.81,5.52,8.33,8.33,0,0,1-4.56,3.52,9.24,9.24,0,0,1-5.81.15,12.39,12.39,0,0,1-5.07-3l.31,0a9.4,9.4,0,0,1-6.16,4.47,12,12,0,0,1-2.59.22,20.91,20.91,0,0,1-5.14-.55,8.22,8.22,0,0,1-2.46-1.06,7.79,7.79,0,0,1-2-1.88l.77.13A13.44,13.44,0,0,1,37,66.69a9.72,9.72,0,0,1-3.58.59,6.69,6.69,0,0,1-3.56-1.2,7.69,7.69,0,0,1-1.39-1.28,16.69,16.69,0,0,1-1.06-1.48,9,9,0,0,1-1.27-3.5,7.67,7.67,0,0,1,.46-3.76,8.75,8.75,0,0,1,2.1-3.16l2.62-2.18-.09,1.34a8,8,0,0,1-1.87-4.89,10.69,10.69,0,0,1,.19-2.58,5.84,5.84,0,0,1,1.2-2.52,6.34,6.34,0,0,1,4.82-2.34,8.41,8.41,0,0,1,1.33.05c.43,0,.8.15,1.2.22l2.38.46-1.19,1.06a15.83,15.83,0,0,1-.06-2.66,12.37,12.37,0,0,1,.42-2.66,6.73,6.73,0,0,1,1.23-2.56A4.92,4.92,0,0,1,43.41,32l.47-.12.35.33a9.06,9.06,0,0,0,5.61,2.4,5.39,5.39,0,0,0,2.9-.66,5.75,5.75,0,0,0,2.14-2.13l.13-.23.23-.07a3.51,3.51,0,0,0,1.37-.72,7.52,7.52,0,0,0,1-1.33,26,26,0,0,0,1.67-3.18l.23-.54L60,26a10.8,10.8,0,0,1,3.53,3,8.1,8.1,0,0,1,1.11,2.07c.25.7.5,1.41.73,2.13A11,11,0,0,1,66,37.74,10.19,10.19,0,0,1,64.41,42l-.23-.28a9.11,9.11,0,0,1,4.24-.36,5.39,5.39,0,0,1,3.68,2,6.37,6.37,0,0,1,1.2,4A11.27,11.27,0,0,1,73,49.46a7.74,7.74,0,0,1-.71,2v0a6,6,0,0,1,2,2.75,6.42,6.42,0,0,1,.39,1.68A8.24,8.24,0,0,1,74.66,57.57Zm0,0a9,9,0,0,0,0-1.72,6.68,6.68,0,0,0-.4-1.67,6.07,6.07,0,0,0-2-2.72h0v0a8.16,8.16,0,0,0,.69-2,11.38,11.38,0,0,0,.32-2.08A6.23,6.23,0,0,0,72,43.46a5.23,5.23,0,0,0-3.59-1.84,8.59,8.59,0,0,0-4.08.46l-.49.18.26-.46a9.55,9.55,0,0,0,1.34-4.11,10.55,10.55,0,0,0-.69-4.25c-.24-.69-.52-1.38-.79-2.07a7.44,7.44,0,0,0-1.07-1.82,9.88,9.88,0,0,0-3.27-2.63l.7-.28a24.88,24.88,0,0,1-1.63,3.42,8.66,8.66,0,0,1-1.18,1.6,4.56,4.56,0,0,1-1.82,1.07l.36-.3a7,7,0,0,1-2.55,2.73,6.93,6.93,0,0,1-3.65,1A10.43,10.43,0,0,1,43,33.48l.82.21a3,3,0,0,0-1.54,1.07,5,5,0,0,0-.85,1.92A11.39,11.39,0,0,0,41.15,39a14.86,14.86,0,0,0,.06,2.32l.15,1.31L40,42.34l-2.24-.41c-.37-.07-.76-.16-1.1-.2a5.83,5.83,0,0,0-1,0,4.47,4.47,0,0,0-3.36,1.62A4.08,4.08,0,0,0,31.48,45a8.6,8.6,0,0,0-.17,2.09,6.15,6.15,0,0,0,1.38,3.74l.64.75-.74.59L30,54.28a7,7,0,0,0-1.69,2.43,6.57,6.57,0,0,0,.54,5.8,12.94,12.94,0,0,0,.87,1.31,6,6,0,0,0,1.07,1.07,5.24,5.24,0,0,0,2.77,1,10.38,10.38,0,0,0,6-1.75l.48-.3.29.43A6.64,6.64,0,0,0,44.08,67a20.34,20.34,0,0,0,4.9.7,11.81,11.81,0,0,0,2.46-.11,9.56,9.56,0,0,0,2.32-.76,9.38,9.38,0,0,0,3.64-3.26l.14-.22.17.2a11.68,11.68,0,0,0,4.84,3,9.14,9.14,0,0,0,5.71,0,8.87,8.87,0,0,0,2.58-1.32,8.77,8.77,0,0,0,2-2.15A12.41,12.41,0,0,0,74.66,57.57Z"/><path class="cls-3" d="M31,65.91c.67,1.81,1.28,3.64,1.9,5.47s1.22,3.65,1.8,5.48l.87,2.76.22.69a3.88,3.88,0,0,0,.23.58,3.15,3.15,0,0,0,.64,1,.92.92,0,0,0,.32.22,1.63,1.63,0,0,0,.39,0l1.44,0,2.89,0c3.85-.06,7.7-.07,11.55-.06s7.69,0,11.54.13l-.17,0a1.39,1.39,0,0,0,.27-.13,1.61,1.61,0,0,0,.35-.25,3,3,0,0,0,.58-.72,10.34,10.34,0,0,0,.74-2.11l1.39-4.56c.45-1.53,1-3,1.45-4.55s1-3,1.51-4.55c-.28,1.58-.6,3.14-.93,4.71s-.62,3.13-1,4.69L67.91,79.3l-.27,1.17a5.63,5.63,0,0,1-.45,1.26,4.55,4.55,0,0,1-.84,1.18,4.13,4.13,0,0,1-.6.49,2.82,2.82,0,0,1-.81.36l-.06,0h-.12c-3.85.08-7.69.13-11.54.13s-7.7,0-11.55-.06l-2.89,0-1.44,0a2.64,2.64,0,0,1-1-.18,2.67,2.67,0,0,1-.85-.62,5.21,5.21,0,0,1-.88-1.48,5.94,5.94,0,0,1-.26-.78l-.17-.7-.68-2.81c-.45-1.87-.89-3.75-1.29-5.63S31.34,67.81,31,65.91Z"/><path class="cls-3" d="M56.51,28a8.69,8.69,0,0,1-1.68,5.3,6.52,6.52,0,0,1-5.07,2.61A9.91,9.91,0,0,1,44,34.26a8.82,8.82,0,0,1-2.28-2.12,6.94,6.94,0,0,1-1.25-3,7.66,7.66,0,0,1,.3-3.2,6.13,6.13,0,0,1,1.77-2.71,7.66,7.66,0,0,1,5.76-1.72,11.61,11.61,0,0,1,5.46,1.74A5.48,5.48,0,0,1,56.51,28Zm0,0a4.87,4.87,0,0,0-.79-2.65,5.7,5.7,0,0,0-2.07-1.8,10,10,0,0,0-5.31-1,6.8,6.8,0,0,0-4.56,2,5.44,5.44,0,0,0-1.3,4.39,6.46,6.46,0,0,0,2.55,4,9.41,9.41,0,0,0,4.75,2,6.09,6.09,0,0,0,2.61-.29,5.89,5.89,0,0,0,2.23-1.51A7.3,7.3,0,0,0,56,30.7,8.82,8.82,0,0,0,56.51,28Z"/><path class="cls-3" d="M50.25,18.56c-.16.76-.33,1.38-.48,2l-.44,1.73c-.13.56-.28,1.13-.41,1.73a20.33,20.33,0,0,1-.54,2,4.47,4.47,0,0,1-1-4.2,4.84,4.84,0,0,1,1-2A3.64,3.64,0,0,1,50.25,18.56Z"/><path class="cls-3" d="M46,24.16a5.38,5.38,0,0,0,1.28.57,4.58,4.58,0,0,0,.84.12c.27,0,.62,0,1,0a8.24,8.24,0,0,1,1.52.13,2.68,2.68,0,0,1-1,1.36,2.73,2.73,0,0,1-1.72.46,2.34,2.34,0,0,1-1.71-.93A1.81,1.81,0,0,1,46,24.16Z"/></g></svg>