<svg xmlns="http://www.w3.org/2000/svg" viewBox="0 0 100 100"><defs><style>.cls-1{fill:#fff;}.cls-2{fill:#acdad8;}.cls-3{fill:#1d1d1b;}</style></defs><title>pImg01</title><g id="Layer_1" data-name="Layer 1"><rect class="cls-1" width="100" height="100"/></g><g id="Layer_3" data-name="Layer 3"><path class="cls-2" d="M19.54,42.63c2.27-.19,16.56-3,17.34.27l-.16-6.32c-.65,3.28-6.15,2.39-8.38,2.66a26.42,26.42,0,0,0-9.76,3.7c-4.8,2.71-6.18,5.24-5.55,10.78.78,6.76,6.15,4,11,2.74,2-.51,21.89-4.7,22.13-2.65l.2-6.12c-1.81,3.77-9.57,4.39-13.1,4.77-3.69.39-7.5.49-10.89,2.2-5.61,2.82-6.83,8-6,13.87.08.56.2,2,.9,2.19,3.41,1.1,8.39.5,11.9.25A77.93,77.93,0,0,0,40.37,69.4c1.23-.26,2.45-.56,3.66-.88q4-.27,2.95-5.35c-.12,0-3.63,2.66-4.4,3-2.59,1.19-5.14,2.19-7.3,4.13A13.63,13.63,0,0,0,31.75,83.9C32.44,86,32.9,86.31,35.07,86c4.28-.69,8.93-3,13-4.45,2-.67.4-9.14-.22-8.93L39.5,75.44c-1.59.54-5.27,2.67-6.9,1.42l.76,3.1-.08-1.22L33,83.79c1.14-3.92,4.17-6.18,7.77-7.81,2.44-1.11,5.4-1.84,7-4.21,2.22-3.3,1.86-9.24.22-12.65a.77.77,0,0,0-.51-.6,81.75,81.75,0,0,1-15.64,3.27c-4.4.46-10.44,1.37-14.71,0L18,64l-.13-.85-.2,6.12c4.22-13.27,30.69-2,30.3-17.74,0-1.86,0-4.61-1.39-6-2-1.89-6.09-.87-8.58-.62a92.79,92.79,0,0,0-12.39,2.16c-3.09.75-9,4-11.48,1.11l.82,4.29-.05-1.12-.61,4.32c2.64-5,11.38-7.37,16.58-7.65,4.18-.23,6.87-1.16,7.48-5.63.36-2.62.52-7.23-1.86-9-1.71-1.3-4.25-.77-6.21-.62-3.65.29-7.29.62-10.93.93-1.55.13-1.07,9,.22,8.93Z"/><path class="cls-3" d="M76.39,54.2a7.26,7.26,0,0,0,3.44-3,7.11,7.11,0,0,0,.91-4.43,7,7,0,0,0-1.93-4,7,7,0,0,0-3.94-2l-.56-.08.35-.46A7,7,0,0,0,76.08,36a6.79,6.79,0,0,0-4.88-6.55,6.82,6.82,0,0,0-4.26.18L66,30l.13-1a6.68,6.68,0,0,0-.79-4.16,6.52,6.52,0,0,0-10.76-.93l-.81,1-.5-1.21a6.54,6.54,0,0,0-2.68-3.12,6.44,6.44,0,0,0-4-.85,6.27,6.27,0,0,0-3.68,1.71A6.49,6.49,0,0,0,41,25l-.24,1.47-1.17-.92a6.38,6.38,0,0,0-3.82-1.36,6.32,6.32,0,0,0-6.16,4.51,6.36,6.36,0,0,0,.14,4l.56,1.48L28.77,34a6.44,6.44,0,0,0-3.95.72,6.23,6.23,0,0,0-3.05,6.93A6.33,6.33,0,0,0,23.88,45l1.31,1.08-1.58.62a6.41,6.41,0,0,0-3.05,2.56,6.25,6.25,0,0,0,.78,7.53,6.31,6.31,0,0,0,3.52,1.9l1.58.28-1,1.24A6.39,6.39,0,0,0,24.07,64a6.3,6.3,0,0,0,4.47,6.18,6.31,6.31,0,0,0,4.05-.11l1.4-.52L33.77,71a6.46,6.46,0,0,0,.7,4,6.33,6.33,0,0,0,3,2.77,6.4,6.4,0,0,0,4,.4A6.49,6.49,0,0,0,45,76.08l.84-1,.47,1.21a6.53,6.53,0,0,0,10.52,2.43,6.67,6.67,0,0,0,2-3.71l.18-1,.77.62a6.74,6.74,0,0,0,10.64-3.24A6.88,6.88,0,0,0,70.41,67l-.19-.55.56.09a7,7,0,0,0,7.45-3.95,7.16,7.16,0,0,0-1.84-8.43Zm0,0a7.3,7.3,0,0,1,2.53,3.89,7.17,7.17,0,0,1-.35,4.7,7.39,7.39,0,0,1-3.17,3.55,7.65,7.65,0,0,1-4.72.92l.37-.46A7.66,7.66,0,0,1,63.8,77.22a7.93,7.93,0,0,1-4.69-1.65l.94-.36a7.94,7.94,0,0,1-2.32,4.43,7.83,7.83,0,0,1-4.56,2.14,8,8,0,0,1-5-1.06,8.07,8.07,0,0,1-3.31-3.87l1.31.21a8.09,8.09,0,0,1-4.33,2.74,7.94,7.94,0,0,1-5.13-.44A8,8,0,0,1,33,75.87,8.17,8.17,0,0,1,32,70.78l1.18,1A8.14,8.14,0,0,1,24,59.07l.58,1.51A8.21,8.21,0,0,1,20,58.13a8.18,8.18,0,0,1-1.07-9.86,8.31,8.31,0,0,1,4-3.4l-.27,1.7a8.24,8.24,0,0,1-2.75-4.46,8.16,8.16,0,0,1,4-9A8.28,8.28,0,0,1,29,32.15l-1,1.26a8.22,8.22,0,0,1-.16-5.21,8.14,8.14,0,0,1,8-5.77,8.24,8.24,0,0,1,4.86,1.77l-1.41.55a8.19,8.19,0,0,1,2.45-4.56,8.06,8.06,0,0,1,4.7-2.14,8,8,0,0,1,5,1.16,8.14,8.14,0,0,1,3.27,3.94l-1.31-.21a8,8,0,0,1,4.35-2.65,7.87,7.87,0,0,1,9.55,8.88l-.79-.63a7.86,7.86,0,0,1,5-.12,7.66,7.66,0,0,1,5.4,7.6,7.74,7.74,0,0,1-1.72,4.54L75,40a7.61,7.61,0,0,1,4.2,2.34,7.33,7.33,0,0,1,1.92,4.35A7.19,7.19,0,0,1,80,51.27,7.36,7.36,0,0,1,76.39,54.2Z"/><path class="cls-3" d="M45.25,41.41a3.21,3.21,0,0,1-2.66,3.16,3.14,3.14,0,0,1-2.48-.67,3.24,3.24,0,0,1,0-5,3.13,3.13,0,0,1,2.49-.67A3.21,3.21,0,0,1,45.25,41.41Zm0,0a2.25,2.25,0,0,0-.88-1.78,2.12,2.12,0,0,0-1.78-.37,2.23,2.23,0,0,0,0,4.31,2.12,2.12,0,0,0,1.78-.38A2.25,2.25,0,0,0,45.25,41.41Z"/><path class="cls-3" d="M65.9,59.08a3.21,3.21,0,0,1-2.66,3.16,3.17,3.17,0,0,1-2.49-.67,3.23,3.23,0,0,1,0-5,3.17,3.17,0,0,1,2.49-.67A3.21,3.21,0,0,1,65.9,59.08Zm0,0A2.25,2.25,0,0,0,65,57.3a2.13,2.13,0,0,0-1.78-.37,2.23,2.23,0,0,0,0,4.31A2.09,2.09,0,0,0,65,60.86,2.25,2.25,0,0,0,65.9,59.08Z"/><path class="cls-3" d="M62.55,40.79a3.16,3.16,0,0,1-5.15,2.49,3.25,3.25,0,0,1-1.16-2.49A3.21,3.21,0,0,1,57.4,38.3a3.13,3.13,0,0,1,2.49-.67A3.21,3.21,0,0,1,62.55,40.79Zm0,0A2.25,2.25,0,0,0,61.67,39a2.12,2.12,0,0,0-1.78-.38,2.24,2.24,0,0,0,0,4.32,2.12,2.12,0,0,0,1.78-.38A2.25,2.25,0,0,0,62.55,40.79Z"/><path class="cls-3" d="M53,51.81A3.19,3.19,0,0,1,50.33,55a3.15,3.15,0,0,1-2.49-.66,3.27,3.27,0,0,1-1.17-2.49,3.22,3.22,0,0,1,1.17-2.49,3.12,3.12,0,0,1,2.49-.67A3.19,3.19,0,0,1,53,51.81Zm0,0A2.24,2.24,0,0,0,52.11,50a2.14,2.14,0,0,0-1.78-.38,2.23,2.23,0,0,0-1.66,2.16A2.2,2.2,0,0,0,50.33,54a2.14,2.14,0,0,0,1.78-.38A2.24,2.24,0,0,0,53,51.81Z"/><path class="cls-3" d="M37.7,54.77a3.21,3.21,0,0,1-2.65,3.16,3.16,3.16,0,0,1-2.49-.67,3.23,3.23,0,0,1,0-5,3.15,3.15,0,0,1,2.49-.67A3.22,3.22,0,0,1,37.7,54.77Zm0,0A2.25,2.25,0,0,0,36.83,53a2.17,2.17,0,0,0-1.78-.37,2.23,2.23,0,0,0,0,4.31,2.13,2.13,0,0,0,1.78-.37A2.26,2.26,0,0,0,37.7,54.77Z"/><path class="cls-3" d="M50.33,63.8A3.21,3.21,0,0,1,47.67,67a3.13,3.13,0,0,1-2.49-.67,3.23,3.23,0,0,1,0-5,3.12,3.12,0,0,1,2.49-.66A3.2,3.2,0,0,1,50.33,63.8Zm0,0A2.26,2.26,0,0,0,49.45,62a2.17,2.17,0,0,0-1.78-.37,2.23,2.23,0,0,0,0,4.31,2.12,2.12,0,0,0,1.78-.37A2.26,2.26,0,0,0,50.33,63.8Z"/></g></svg>