<svg xmlns="http://www.w3.org/2000/svg" viewBox="0 0 100 100"><defs><style>.cls-1{fill:#fff;}.cls-2{fill:#e0c6c3;}.cls-3{fill:#1d1d1b;}</style></defs><title>pImg01</title><g id="Layer_1" data-name="Layer 1"><rect class="cls-1" width="100" height="100"/><rect class="cls-1" x="99.99" width="100" height="100"/></g><g id="Layer_3" data-name="Layer 3"><path class="cls-2" d="M64.62,44.89a44.44,44.44,0,0,0,7.46,2.49c1.52.37,6.7.62,7.33,2.3L79.22,42c-.87,3.27-8.83,1.85-11.23,1.85-3.09,0-6.22-.18-9.31,0-4.83.23-5.69,3.32-5.42,7.77.37,6.15,3.51,5.55,9,5.19l11-.72c1.89-.12,8.4-1.5,9.12,1.47l0-7c-1.17,3.86-10,1.91-12.88,1.84-3.74-.08-7.49,0-11.23.16-5.22.26-12.73-1-13.29,5.57a13.41,13.41,0,0,0,.5,6.11c1.33,3.16,3.92,2.94,7.09,3.07,4,.17,7.95.25,11.93.38,2.68.08,10.82-1.06,12,2.27l-.5-6.1c-.57,5.06-22.5,1.36-25.36.78-5.13-1-11.42-4.69-11.81,2.75-.09,1.61-.12,5,1.12,6.34,1.8,2,6.59.85,8.8.75,2.62-.12,22.71-2.92,23.38,1.08l0-5.41c-.79,4.28-7.13,5.08-10.6,5-4.46-.16-8.62-1.84-12.72-3.44-5.42-2.1-13.82-5.91-14.5,2.82-.57,7.43,2.22,9,8.73,11.24,4.45,1.51,8.81,3.4,13.58,3.37a31.11,31.11,0,0,1,8.15.74c.72.17,1.75-8.46-.22-8.94-4.11-1-8-.26-12.13-1.06A67.93,67.93,0,0,1,43.8,77c-2.33-.78-7.2-1.58-8.15-4.26l.5,6.11c.37-4.09,20.19,4.33,22.53,4.73,6.3,1.1,14.13-.33,15.09-7.71.72-5.56-.39-10.65-6.62-11.21-4.24-.38-8.78.31-13,.51-2.15.1-13,2-13.9-.59l.18,7.71c.78-2.25,9,.89,10.48,1.18A78.36,78.36,0,0,0,63.46,75c5.38.2,13,1.17,14.22-5.53.71-4.07.52-9.54-4.25-10.44-4.11-.77-8.94-.32-13.11-.45-3.18-.1-12.49,1.21-14-2.13l.5,6.1c.15-1.5,20.88-1.3,22.95-1.26,5.42.11,13.22,2.55,14.14-4.7.58-4.59-.28-9.52-5.61-9.78-3.67-.19-7.54.47-11.21.71-2.21.14-11.55,2-12.46-.42l.19,7.72c1.07-4,14-2,17.14-2,4.22,0,8,.62,8.71-4.26.37-2.42.54-7-1.8-8.46-1.52-1-4.41-1-6.13-1.39A46.36,46.36,0,0,1,64.4,36c-.24-.1-1.92,8,.22,8.94Z"/><path class="cls-3" d="M77.65,53.2a28.62,28.62,0,0,1-55,11.13,28.59,28.59,0,0,1,0-22.26,28.63,28.63,0,0,1,55,11.13Zm0,0a28.13,28.13,0,0,0-2.18-10.75A27.64,27.64,0,0,0,39,27.85a28,28,0,0,0-8.78,6.07A27.63,27.63,0,1,0,75.47,64,28.13,28.13,0,0,0,77.65,53.2Z"/><path class="cls-3" d="M58.62,52.83a10,10,0,0,1-9.47,10,9.92,9.92,0,0,1-9.63-6,10.57,10.57,0,0,1-.84-4,10.39,10.39,0,0,1,.84-4,10,10,0,0,1,2.33-3.31,10.11,10.11,0,0,1,7.3-2.67,10,10,0,0,1,9.47,10Zm0,0a9.48,9.48,0,0,0-.75-3.61,8.94,8.94,0,0,0-8.72-5.36,9,9,0,0,0-8.47,9,9,9,0,0,0,8.47,9,8.94,8.94,0,0,0,8.72-5.36A9.52,9.52,0,0,0,58.62,52.83Z"/><path class="cls-3" d="M24.08,65.18A7.94,7.94,0,0,1,31.16,64a9.74,9.74,0,0,1,3.29,1.89,26.54,26.54,0,0,0,2.74,2.17,5.78,5.78,0,0,0,2.9,1.09,6.71,6.71,0,0,0,3-.8A29.34,29.34,0,0,1,46.58,67a9.69,9.69,0,0,1,4-.37,10.24,10.24,0,0,1,3.74,1.27,11.44,11.44,0,0,1,3,2.43,7.54,7.54,0,0,0,1.12,1.1,1.4,1.4,0,0,0,.48.2,1.07,1.07,0,0,0,.51,0,3.85,3.85,0,0,0,1.2-.75c.43-.36.86-.76,1.29-1.17a27.37,27.37,0,0,1,2.79-2.42,7.46,7.46,0,0,1,3.53-1.5c.7-.05,1.26,0,1.84,0a17.32,17.32,0,0,0,1.76-.11,9.57,9.57,0,0,0,3.4-1c-1.9,1.52-4.61,1.86-6.85,2.07a6.25,6.25,0,0,0-2.88,1.57A30.54,30.54,0,0,0,63,70.81c-.41.44-.83.89-1.29,1.33a5.56,5.56,0,0,1-1.8,1.17,3,3,0,0,1-1.28.11A3,3,0,0,1,57.43,73a8.64,8.64,0,0,1-1.52-1.33,10.09,10.09,0,0,0-2.58-2,8.5,8.5,0,0,0-3-1,7.72,7.72,0,0,0-3.16.26,32.68,32.68,0,0,0-3.26,1.25,8.55,8.55,0,0,1-3.89.8,7.1,7.1,0,0,1-3.68-1.56,24.43,24.43,0,0,1-2.73-2.49A8.62,8.62,0,0,0,30.82,65,8,8,0,0,0,24.08,65.18Z"/><path class="cls-3" d="M40.31,37.28a2.47,2.47,0,0,1-1.91,2.41,2.44,2.44,0,0,1-2-.45,2.51,2.51,0,0,1,0-3.93,2.39,2.39,0,0,1,2-.45A2.47,2.47,0,0,1,40.31,37.28Zm0,0A1.52,1.52,0,0,0,39.65,36a1.39,1.39,0,0,0-1.25-.15,1.29,1.29,0,0,0-.74.66,1.53,1.53,0,0,0-.18.75,1.59,1.59,0,0,0,.17.74,1.36,1.36,0,0,0,.75.67,1.39,1.39,0,0,0,1.25-.16A1.52,1.52,0,0,0,40.31,37.28Z"/><path class="cls-3" d="M59.66,34.7a1.78,1.78,0,0,1-.2.84,1.5,1.5,0,0,1-.84.7,1.52,1.52,0,0,1-1.34-.19,1.64,1.64,0,0,1,0-2.69,1.49,1.49,0,0,1,2.18.51A1.72,1.72,0,0,1,59.66,34.7Zm0,0a.7.7,0,0,0-.4-.64.58.58,0,0,0-.64.11.4.4,0,0,0-.12.41c0,.1.09.11.08.12s0,0-.08.13a.42.42,0,0,0,.12.42.58.58,0,0,0,.64.09A.68.68,0,0,0,59.66,34.7Z"/><path class="cls-3" d="M68.72,49.45a1.67,1.67,0,0,1-.2.81,1.46,1.46,0,0,1-.81.7,1.5,1.5,0,0,1-1.33-.19,1.58,1.58,0,0,1-.68-1.32,1.62,1.62,0,0,1,.68-1.33,1.53,1.53,0,0,1,1.33-.19,1.48,1.48,0,0,1,.81.71A1.67,1.67,0,0,1,68.72,49.45Zm0,0a.68.68,0,0,0-.39-.62.56.56,0,0,0-.62.11.39.39,0,0,0-.11.41c0,.09.1.1.1.1s-.06,0-.1.11a.4.4,0,0,0,.11.41.56.56,0,0,0,.62.1A.68.68,0,0,0,68.72,49.45Z"/><path class="cls-3" d="M30.15,54.27a2.23,2.23,0,0,1-1.69,2.19,2.15,2.15,0,0,1-1.81-.38,2.3,2.3,0,0,1,0-3.63,2.17,2.17,0,0,1,1.82-.38A2.24,2.24,0,0,1,30.15,54.27Zm0,0a1.31,1.31,0,0,0-.59-1.11,1.21,1.21,0,0,0-1.1-.09,1.09,1.09,0,0,0-.59.61,1.46,1.46,0,0,0-.11.59,1.49,1.49,0,0,0,.1.59,1.14,1.14,0,0,0,.6.61,1.18,1.18,0,0,0,1.1-.1A1.29,1.29,0,0,0,30.15,54.27Z"/><path class="cls-3" d="M71,61.83A2.19,2.19,0,0,1,69.36,64a2.16,2.16,0,0,1-1.78-.37,2.25,2.25,0,0,1,0-3.55,2.13,2.13,0,0,1,1.78-.38A2.21,2.21,0,0,1,71,61.83Zm0,0a1.26,1.26,0,0,0-.58-1.06,1.13,1.13,0,0,0-1.06-.08,1.06,1.06,0,0,0-.56.59,1.43,1.43,0,0,0-.09.55,1.51,1.51,0,0,0,.09.56,1.06,1.06,0,0,0,.56.59,1.1,1.1,0,0,0,1.06-.08A1.26,1.26,0,0,0,71,61.83Z"/></g></svg>