<svg xmlns="http://www.w3.org/2000/svg" viewBox="0 0 100 100"><defs><style>.cls-1{fill:#fff;}.cls-2{fill:#9cd5e4;}.cls-3{fill:#1d1d1b;}</style></defs><title>pImg01</title><g id="Layer_1" data-name="Layer 1"><rect class="cls-1" x="-100" width="100" height="100"/><rect class="cls-1" width="100" height="100"/><rect class="cls-1" x="-100" y="100" width="100" height="100"/></g><g id="Layer_3" data-name="Layer 3"><path class="cls-2" d="M61.09,25.31l7.46,1.61c2,.44,5.27.51,6.93,1.9l-.76-3.1.08,1,.55-5.51c-6,8.56-25.2-2.34-25.39,12,0,1.39-.19,4.43.68,5.59,1.32,1.78,4,1.06,6,1L80,39.16l-1-6.7c0,.38-4,1.33-4.74,1.48a61.05,61.05,0,0,1-8.2.92c-4.91.28-9.84.19-14.75.52-3.17.21-8.94-.28-10.48,3-1.14,2.45-.78,6.71-.4,9.26.43,2.92,1.15,5,4.2,5.74,4.83,1.16,10.56.52,15.46.18,10.47-.71,20.84-2.39,31.36-1.91l-.47-8.77C88,45.6,82.8,45.7,79,46c-4.29.35-8.59.27-12.88.42-5,.17-15-.59-16.53,5.4-1.14,4.3-.43,9.53,4.45,10.14,4.33.55,9,.24,13.36.14,2.67-.07,10.16-1.87,11.73.44l-.61-7.46c-.33,1.38-8.15,1.88-9.23,2-3.33.34-6.68.41-10,.9-1.93.29-5.9.63-7.43,2.08s-1.33,3.68-1.34,5.55c0,6.49,3.21,7,9.17,7.54,2.13.21,23.74.2,23.76.42l0-5.42c-1.06,4.33-8.64,4.6-12.08,5.1a136.81,136.81,0,0,1-14,1.25c-4.69.21-9.4.23-14.1.21-2.18,0-4.68.3-6.83-.07a4.9,4.9,0,0,1-3-1.08q-1.23-3-1.36-.44l-.79,2.23C33.74,74,38.66,75,41.49,75c1.82,0,4.78-.6,6.5,0,1.92.69,2.41,2.74,4,3.84,4.81,3.31,14.23.31,18.43-3,1-.8,1-8.77-.48-8.77L51.2,67.1c-1.24,0-2.5.07-3.74,0S45,66.4,44,66.34c-1-.92-1.2-.74-.62.53l1.45-.5c1.45.13,3-.35,4.55-.2l-.47-8.77a17.14,17.14,0,0,1-15,3.18c-.73-.17-1.75,8.47.22,8.94A17.68,17.68,0,0,0,49.67,66c1-.82,1.07-8.62-.47-8.77-3.55-.35-7.56,0-8.36,4a22.52,22.52,0,0,0,.74,10.47C43,76.24,46.25,76.06,50.49,76L70.16,76l-.47-8.77C66.75,69.53,62.8,70.47,59.13,71c-2.23.3-4.25.48-6.29-.58-1.83-1-2.15-2.83-3.77-3.84C46.65,65,42.17,66,39.47,66c-2,0-6.86-1-8.39.4-2.61,2.37-.76,10.48.47,13.27,2.66,6,11.43,4,16.71,4A161.52,161.52,0,0,0,73.5,81.9c6-1,11.12-2.05,11.71-8.9.18-2,.21-5-.69-6.92-1.35-2.87-4-1.79-6.75-1.6a108,108,0,0,1-13.46.1c-3.54-.19-10.44.46-12.62-2.72l.74,6.55c.06-.52,8-1.61,8.77-1.7,3.32-.39,6.68-.45,10-.87,5.42-.69,9-1.06,9.09-7,0-1.48.08-4-1.07-5.24C77.6,51.84,74.05,52.89,72,53q-5.72.28-11.45.23c-2.63,0-8.49.82-10-1.88l.74,6.55c.13-1.43,8.67-2.11,9.63-2.2,4-.39,8-.37,11.95-.46,5.66-.14,14.37.4,18.84-3.71.94-.86,1.09-8.69-.48-8.76-8.66-.4-17.22.64-25.83,1.45-3.68.34-7.37.65-11.06.72a69.49,69.49,0,0,1-7.36-.17l-1.84-.16c-1.15-.68-1.76-.42-1.81.76.41.24,4.88-.76,5.45-.82,2.14-.23,4.28-.32,6.43-.4,4-.14,8-.13,12-.4,5.6-.37,12.76-.12,13.6-6.82.09-.74.39-6.73-1-6.7l-14.57.39-6.81.18c-1.9.05-5.47.86-7.17-.2l.76,3.1-.1-1.15-.33,5.05c2.15-5.38,10.38-3.29,14.82-3.8,3.29-.37,8.8-1.15,10-4.79.67-1.95.81-7.09-.6-8.81-1.16-1.41-4-1.46-5.59-1.8l-9.33-2c-.79-.17-1.72,8.52.22,8.93Z"/><path class="cls-2" d="M46.64,66.52a33,33,0,0,0,20.54,4.67c1.59-.16,1-9.07-.22-8.94a32.17,32.17,0,0,1-20-4.36c-.82-.49-2,7.59-.31,8.63Z"/><path class="cls-2" d="M46.13,57.6c3.7,4.38,11.66,5.13,17,4.88,1.47-.06,1.18-9-.22-8.93-5.09.23-13-.42-16.47-4.58-.81-.95-1.12,2.93-1.13,3.15-.06,1.48-.24,4.23.82,5.48Z"/><path class="cls-2" d="M47.38,49.07a160.21,160.21,0,0,0,35.05-2.45c1.75-.32.82-9.13-.21-8.94a159.73,159.73,0,0,1-35.06,2.45c-1.26-.05-1.38,8.87.22,8.94Z"/><path class="cls-3" d="M64.63,57a14.93,14.93,0,0,1-9.88,2.92,15.55,15.55,0,0,1-9.67-4.28,15.8,15.8,0,0,1-2.17-20.08l.66-1,.92.94L47,38l2.57,2.65c1.72,1.76,3.4,3.57,5.11,5.35s3.37,3.6,5,5.43S63,55.1,64.63,57Zm0,0c-1.89-1.6-3.69-3.28-5.53-4.93s-3.63-3.34-5.43-5-3.59-3.38-5.35-5.11l-2.65-2.57-1.33-1.29-.65-.65-.33-.32a4.88,4.88,0,0,1-.42-.44l1.59,0a14.45,14.45,0,0,0,1.75,17.82,14.89,14.89,0,0,0,8.58,4.4,16.08,16.08,0,0,0,5-.1A16.46,16.46,0,0,0,64.63,57Z"/><path class="cls-3" d="M69,52.6c-1.87-1.62-3.68-3.29-5.52-4.94s-3.62-3.35-5.43-5-3.58-3.38-5.35-5.1L50.05,35l-2.54-2.5-.94-.92,1-.66A15.8,15.8,0,0,1,67.65,33a15.55,15.55,0,0,1,4.28,9.68A14.83,14.83,0,0,1,69,52.6Zm0,0a16.1,16.1,0,0,0,1.75-4.78,15.49,15.49,0,0,0,.09-5,14.78,14.78,0,0,0-4.4-8.58A14.45,14.45,0,0,0,48.62,32.5l.05-1.59a4.88,4.88,0,0,1,.44.42l.32.33.65.65,1.29,1.33,2.57,2.65c1.73,1.76,3.4,3.57,5.11,5.35s3.37,3.59,5,5.43S67.4,50.71,69,52.6Z"/><path class="cls-3" d="M68.91,56.88A3.13,3.13,0,0,1,64.6,57h0c-1.79-1.71-3.54-3.43-5.36-5.1l-5.42-5-5.43-5c-.91-.83-1.8-1.68-2.69-2.53L44.36,38l-.67-.64-.33-.32c-.12-.13-.17-.15-.41-.43l.06.07a4.1,4.1,0,0,1,.1-5.63,4.07,4.07,0,0,1,5.63-.1l-.07-.06c.28.24.3.29.43.41l.33.33.63.67,1.28,1.34c.85.88,1.71,1.78,2.54,2.69l5,5.42,5,5.43C65.6,49,67.32,50.78,69,52.57h0a3.19,3.19,0,0,1,.8,2.19A3.14,3.14,0,0,1,68.91,56.88Zm0,0a3.13,3.13,0,0,0,.88-2.13A3.06,3.06,0,0,0,69,52.62h0c-1.76-1.71-3.54-3.43-5.35-5.1l-5.43-5-5.42-5c-.91-.84-1.8-1.69-2.69-2.54l-1.34-1.28L48.07,33l-.56-.55-.07-.06a2.12,2.12,0,0,0-2.92.09,2.14,2.14,0,0,0-.09,2.92l.06.07L47,38.05c.85.89,1.7,1.78,2.53,2.69l5,5.43,5,5.42c1.67,1.81,3.38,3.59,5.1,5.35h0a3.06,3.06,0,0,0,2.13.82A3.13,3.13,0,0,0,68.91,56.88Z"/><path class="cls-3" d="M46.77,56c-3.41,3.75-6.94,7.68-10.64,11.63-1.84,2-3.73,4-5.63,5.93L27.64,76.5a5.37,5.37,0,0,1-.46.42,3.19,3.19,0,0,1-.6.38,3.44,3.44,0,0,1-1.37.32,3.29,3.29,0,0,1-2.53-1.09,3.36,3.36,0,0,1-.83-2.64,3.19,3.19,0,0,1,.49-1.34,2.93,2.93,0,0,1,.44-.56l.36-.36L26,68.82c1.89-1.89,3.82-3.73,5.74-5.59,3.86-3.69,7.73-7.37,11.73-10.92l.26-.22.17.25a20.15,20.15,0,0,0,1.31,1.92A21.62,21.62,0,0,0,46.77,56Zm0,0A18.68,18.68,0,0,1,45,54.49a20.61,20.61,0,0,1-1.53-1.8l.43,0c-3.55,4-7.23,7.88-10.92,11.74-1.86,1.91-3.7,3.85-5.59,5.74L24.54,73l-.34.35a1.24,1.24,0,0,0-.18.22,1.45,1.45,0,0,0-.19.54,1.28,1.28,0,0,0,.32,1.06,1.33,1.33,0,0,0,1,.46,1.34,1.34,0,0,0,.56-.12A2.07,2.07,0,0,0,26,75.4l.28-.26,2.79-2.72c1.88-1.81,3.77-3.6,5.71-5.4C38.62,63.42,42.64,59.8,46.77,56Z"/></g></svg>