<svg xmlns="http://www.w3.org/2000/svg" viewBox="0 0 100 100"><defs><style>.cls-1{fill:#fff;}.cls-2{fill:#eaa5c1;}.cls-3{fill:#1d1d1b;}</style></defs><title>pImg01</title><g id="Layer_1" data-name="Layer 1"><rect class="cls-1" width="100" height="100"/><rect class="cls-1" y="100" width="100" height="100"/></g><g id="Layer_3" data-name="Layer 3"><path class="cls-2" d="M15.74,48c7-1.78,13-5.47,19.53-8.46a50.72,50.72,0,0,1,21.27-4.72l-1-6.7c0-.29-3,1.83-4,2.44-1.44.87-2.92,1.68-4.4,2.47-3.22,1.72-6.51,3.32-9.66,5.17-5.14,3-10.21,6.44-12.19,12.33-.27.8-.59,8.72.7,8.31A163,163,0,0,0,63.33,41.79L62.86,33C53,40.81,41.46,45.17,30.26,50.65c-7.9,3.88-18.89,8.42-19.39,18.47-.14,2.88-.46,6.59,2.81,7.15,5.56,1,12.65-3.83,17.36-6.32q17.82-9.44,35.43-19.3L66,41.88c-7.72,6.84-16.37,12.41-24.74,18.41-6,4.31-17,10.43-17.6,18.62-.07,1.09-.55,5.74.75,6.55,3.14,2,7.06-.19,10.19-1.35,4.59-1.69,9.15-3.46,13.63-5.44A108.07,108.07,0,0,0,71.37,65.06c1.64-1.28-.39-8.82-.48-8.76-5,3.18-9.77,6.64-14.43,10.29-3.72,2.92-7.43,5.61-8,10.55-.12,1-.51,5.8.75,6.55,3.12,1.86,9.76-3.88,12.49-5.79A178.32,178.32,0,0,0,76.13,66.18l-.73-8.6c-8,8-17.4,15.76-23.92,25-.9,1.27-.39,9.35.73,8.6,7.21-4.85,14.73-10.92,19.28-18.45,2.74-4.53,5.3-13.26,2-18.18-4.24-6.32-17.77-1.15-23.23.8C43.65,57.73,33.84,61.6,32,69.1c-.31,1.26-.84,7.1.88,7.61,4.8,1.43,11.72-3.41,15.92-5.44A151.48,151.48,0,0,0,65.34,62c1.74-1.13.28-9.16-.22-8.94-7.2,3.23-18.47,8.52-21.71,16.22-.35.84-.62,8.66.7,8.31a120.85,120.85,0,0,0,14-4.65c2-.81.25-9.12-.22-8.93a122.78,122.78,0,0,1-14,4.65l.7,8.31c1.5-3.57,5.73-6.15,8.77-8.28a72.85,72.85,0,0,1,12-6.69l-.22-8.94a149.91,149.91,0,0,1-16.55,9.28c-4.22,2-11.1,6.88-15.92,5.44l.88,7.61c1.3-5.27,10.86-8.76,15.38-10.51,5.41-2.1,11.72-4.22,17.58-4.08a11.71,11.71,0,0,1,4.41.68l1.33-.25a15.57,15.57,0,0,1-1.47,2.91,39.22,39.22,0,0,1-5.29,6.69,80.76,80.76,0,0,1-14,11.77l.73,8.6c6.52-9.26,16-17,23.92-25,1.45-1.47-.15-9.1-.73-8.6-3.84,3.33-7.67,6.67-11.73,9.73-2.17,1.62-4.39,3.18-6.7,4.59-1.32.81-5.77,4.19-7.49,3.16l.75,6.55c.29-2.43,6.61-6.15,8.41-7.54,4-3.12,8.17-6.09,12.47-8.84l-.47-8.77A105.14,105.14,0,0,1,48,69.73c-3.69,1.63-7.43,3.12-11.2,4.54-3,1.14-8.91,4.56-12.1,2.56l.75,6.55c.18-2.66,6.49-6.75,8.35-8.28,3.54-2.89,7.25-5.56,11-8.19,7.49-5.26,15.08-10.35,21.94-16.43,1.38-1.22-.13-9-.47-8.77Q52.41,49.44,38.44,56.94c-4.34,2.33-8.66,4.76-13.11,6.89-3.59,1.72-9.44,4.89-13.47,3.16l.72,1.3-.16-.64.28,5.41c.43-4.7,8.29-8.38,11.65-10.27,4.45-2.5,9.1-4.63,13.75-6.74,9-4.07,17.71-8.29,25.49-14.43,1.61-1.27-.35-8.84-.47-8.76A163.66,163.66,0,0,1,25.73,49.93l.7,8.31C29,50.46,38.37,46.69,45.08,43.16c4.68-2.45,11.7-4.67,12.25-10.56.07-.75.41-6.71-1-6.7a50.57,50.57,0,0,0-21.27,4.72c-6.48,3-12.55,6.68-19.53,8.46-1.87.48-.63,9.15.22,8.94Z"/><path class="cls-2" d="M53.54,34.85c1-.22,4.76-.67,4.71,1.24,0,1-4,1.61-5.16,1.84l.47,8.76a26.76,26.76,0,0,1,5.29-4.24c1.39-.85,1-9.13-.22-8.94a5.87,5.87,0,0,0-2.74.79c-1.53.65-1,9.05.22,8.93L58.76,43l-.47-8.76a11.87,11.87,0,0,1-3.81,2.63c-1.55.79-1.36,8.23.22,8.93,1.3.58,1,3.06,2.43,3.77,2.16,1,5.32-1.15,7-2.37l-.73-8.61c-4.65,8.76-16.93,11.49-25.47,15L23.13,59.67c-3.15,1.3-5.87,2-6.41,5.7-.11.71-.37,8,.87,7.61a68,68,0,0,0,9.56-3.62c2.05-1,.1-9.08-.22-8.93A67.53,67.53,0,0,1,17.37,64l.88,7.61c.41-2.7,11.05-5.49,13.42-6.47l12.94-5.33c7.16-2.94,15.64-5.36,19.51-12.66.64-1.2.45-9.47-.73-8.61-2.39,1.75-5.28,3.22-7.13.56-.7-1-.52-1.72-1.78-2.28l.22,8.93a19.48,19.48,0,0,0,4.32-3c.95-.85.92-8.9-.47-8.77l-2.66.24.22,8.93a6,6,0,0,1,2.74-.78l-.22-8.94a29.48,29.48,0,0,0-5.8,4.58c-.88.9-.79,9,.48,8.77,2.72-.55,5.86-.9,7.12-3.52,1.06-2.21.81-5.45.67-7.83-.27-4.47-1.91-11-7.78-9.59-1.83.43-.67,9.14.22,8.93Z"/><path class="cls-3" d="M71.43,46.05a9.91,9.91,0,0,1-.17,6.32,16.26,16.26,0,0,1-3.32,5.49,25.7,25.7,0,0,1-10.8,7,25.72,25.72,0,0,1-13,1.17,16.52,16.52,0,0,1-6.25-2.54A10.33,10.33,0,0,1,33.94,51a16.57,16.57,0,0,1,3.66-5.68,25.66,25.66,0,0,1,11.33-6.52,25.85,25.85,0,0,1,12.86-.46A16.21,16.21,0,0,1,67.66,41,10,10,0,0,1,71.43,46.05Zm0,0a10,10,0,0,0-3.81-5,15.77,15.77,0,0,0-5.89-2.38,26,26,0,0,0-22.87,7.88,15.42,15.42,0,0,0-3.1,5.15,9,9,0,0,0-.17,5.69A8.93,8.93,0,0,0,39,61.93a15.16,15.16,0,0,0,5.5,2.43,24.67,24.67,0,0,0,12.35-.44,24.75,24.75,0,0,0,10.9-6.25,15.65,15.65,0,0,0,3.45-5.32A10,10,0,0,0,71.43,46.05Z"/><path class="cls-3" d="M80.09,33.71c1,3,1.92,5.92,3,8.86s2.14,5.81,3.18,8.83a5.06,5.06,0,0,1,0,2.62,4.49,4.49,0,0,1-1.48,2.28,4,4,0,0,1-2.71.85,4.33,4.33,0,0,1-.71-.1l-.58-.15-1.13-.28c-3-.76-6-1.57-9-2.43l-1.1-.31.46-1a9.64,9.64,0,0,0,.64-6.54,8.62,8.62,0,0,0-1.51-3A10.61,10.61,0,0,0,66.55,41L66,40.58l.41-.46L72.75,33a11.75,11.75,0,0,1,1.65-1.74,3.25,3.25,0,0,1,2.3-.56A4.17,4.17,0,0,1,80.09,33.71Zm0,0a4.13,4.13,0,0,0-3.39-2.92,3.1,3.1,0,0,0-2.19.63A12.06,12.06,0,0,0,73,33.21l-5.72,7.62L67.13,40a10.83,10.83,0,0,1,5.11,5.79,10.17,10.17,0,0,1,.52,4,12.46,12.46,0,0,1-1,3.86l-.64-1.35c3,.82,6,1.69,9,2.61l1.12.34c.17.06.38.13.54.17a3.29,3.29,0,0,0,.43.09,2.43,2.43,0,0,0,1.69-.37A3.17,3.17,0,0,0,85,53.64a3.73,3.73,0,0,0,.14-2c-.75-2.95-1.6-6-2.41-9S81,36.68,80.09,33.71Z"/><path class="cls-3" d="M34.64,57.68a9.41,9.41,0,0,0,1.8,3.17,10.68,10.68,0,0,0,2.84,2.3l.1.05-.08.1C37.85,65.14,36.46,67,35,68.92l-2.12,2.82a4.48,4.48,0,0,1-1.4,1.37,3.79,3.79,0,0,1-2,.53A4.59,4.59,0,0,1,26,71.74a6.17,6.17,0,0,1-.55-.88,9.17,9.17,0,0,1-.35-.91l-.57-1.67c-.78-2.22-1.48-4.46-2.22-6.69s-1.4-4.49-2-6.75l-.49-1.7c-.08-.26-.16-.61-.23-1a5.09,5.09,0,0,1-.06-1,4.6,4.6,0,0,1,1.83-3.61,3.8,3.8,0,0,1,1.94-.72,4.45,4.45,0,0,1,1.94.31l3.35,1.09c2.24.72,4.47,1.48,6.72,2.16l.12,0-.05.11a10.41,10.41,0,0,0-1,3.51A9.35,9.35,0,0,0,34.64,57.68Zm0,0a10.63,10.63,0,0,1,.46-7.24l.07.14c-2.28-.59-4.57-1.11-6.86-1.65l-3.44-.81A3.45,3.45,0,0,0,23.34,48a2.48,2.48,0,0,0-1.26.61,3.1,3.1,0,0,0-1,2.57,4.68,4.68,0,0,0,.33,1.46L22,54.29c.78,2.22,1.47,4.46,2.21,6.7s1.4,4.48,2,6.75l.49,1.69c.08.31.17.52.24.75a4,4,0,0,0,.33.65,3.12,3.12,0,0,0,2.32,1.51A2.59,2.59,0,0,0,31,72.1a3.42,3.42,0,0,0,1.17-1l2.35-2.64c1.55-1.76,3.14-3.51,4.66-5.3l0,.15a12.37,12.37,0,0,1-2.77-2.43A9.25,9.25,0,0,1,34.64,57.68Z"/><path class="cls-3" d="M70,43.28a5.7,5.7,0,0,1,.87-1.84A8.47,8.47,0,0,1,72.12,40a8.11,8.11,0,0,1,1.54-1.1,5.66,5.66,0,0,1,1.92-.66,5.7,5.7,0,0,1-.87,1.84,8.39,8.39,0,0,1-2.8,2.5A6,6,0,0,1,70,43.28Z"/><path class="cls-3" d="M71.85,48.72a5.57,5.57,0,0,1,1.71-.85,7.9,7.9,0,0,1,1.73-.28,7,7,0,0,1,1.75.15,5.05,5.05,0,0,1,1.77.72,5.25,5.25,0,0,1-1.71.85,7.15,7.15,0,0,1-3.48.13A5.17,5.17,0,0,1,71.85,48.72Z"/><path class="cls-3" d="M34.23,54.64a6.73,6.73,0,0,1-2.13.61,9.67,9.67,0,0,1-2.08,0A9.05,9.05,0,0,1,28,54.9,6.64,6.64,0,0,1,26,54a6.73,6.73,0,0,1,2.13-.61,9.66,9.66,0,0,1,2.08,0,10.44,10.44,0,0,1,2,.39A6.89,6.89,0,0,1,34.23,54.64Z"/><path class="cls-3" d="M35.83,60.1a6.3,6.3,0,0,1-1.13,1.83,10,10,0,0,1-1.47,1.37,9.36,9.36,0,0,1-1.73,1,6.38,6.38,0,0,1-2.07.57,6.3,6.3,0,0,1,1.13-1.83,9.26,9.26,0,0,1,3.2-2.39A6.64,6.64,0,0,1,35.83,60.1Z"/><path class="cls-3" d="M41.34,61.52a11,11,0,0,0,3.63.8,20.36,20.36,0,0,0,3.66-.09,36.27,36.27,0,0,0,7.16-1.59,35.19,35.19,0,0,0,6.74-2.89,25.87,25.87,0,0,0,3.07-2A9.06,9.06,0,0,0,68.15,53a4.64,4.64,0,0,1-.71,1.81,12.83,12.83,0,0,1-1.16,1.58,18.09,18.09,0,0,1-2.9,2.63A25.72,25.72,0,0,1,48.7,63.78a15.06,15.06,0,0,1-3.9-.5A8.31,8.31,0,0,1,41.34,61.52Z"/></g></svg>