<svg xmlns="http://www.w3.org/2000/svg" viewBox="0 0 100 100"><defs><style>.cls-1{fill:#fff;}.cls-2{fill:#f3b9c0;}.cls-3{fill:#1d1d1b;}</style></defs><title>pImg01</title><g id="Layer_1" data-name="Layer 1"><rect class="cls-1" x="-99.99" width="100" height="100"/><rect class="cls-1" width="100" height="100"/></g><g id="Layer_3" data-name="Layer 3"><path class="cls-2" d="M53.33,61.46a20.14,20.14,0,0,0,7.05,5.08c1.23.44,2.65.41,3.76,1.1A5.26,5.26,0,0,1,65.45,69c1.17,1.55.59,3,.53-1.33,0,.82,1.19,10.73,2.78,6.79,2.23-5.56,2.12-11.74,1.76-17.62,0-.72-.37-5.89-1.82-5.79a11.11,11.11,0,0,0-5.28,1.68c-2,1.21-1.59,6-1.54,8s-.18,6.88,1.93,7.9c3.17,1.54,7,1.38,8.61-1.93,1.44-3,.85-7.73.35-10.88-.21-1.31-1-5.67-2.44-2.8-.76,1.57-5.9.21-6.91-.27l.39,15.88a11,11,0,0,1,5.28-1.67L67.28,61.1c.06-1.9-.15-2-.61-.36l2.78,6.79c-.07-4.72-.49-11.47-4.33-14.92-1.36-1.23-3-1.26-4.62-1.77-2.67-.83-4.7-2.8-6.63-4.72-1.57-1.56-2,5.11-2,5.6-.09,2.4-.51,7.8,1.45,9.74Z"/><path class="cls-2" d="M13.84,35.29c2.14,3.47,7,3.36,10.59,3.67,1.88.16,15.52-.6,16,.66l-1-6.84,0,1.34.69-6.88c-1.48,4.2-8.31,4-11.91,4.6C24.13,32.47,20,33.11,16,34.08c-3.07.74-6.73,1.33-8.37,4.3C5.9,41.51,6.15,46.25,6.46,49.66c.22,2.51.5,6.27,3,7.63,3.33,1.79,10.4.07,13.9-.61C32.3,55,40.72,51.26,49,47.62l-1.29-2.3.27,1.2L48,34c-1.53,3.86-8.33,4.47-11.77,5.48a67.12,67.12,0,0,0-12.41,5c-3,1.6-7.62,3.67-9.63,6.59-2.18,3.17-1.76,8-1.47,11.61.22,2.72.22,6,3,7.16,3.52,1.45,10.13-1.1,13.43-2.32,8.66-3.2,16.32-8.51,25.32-10.89l-.91-1.06.36,1.15-1-6.84c-.12-5.16-1-2-4-.69-1.4.62-2.89,1-4.34,1.54a55.85,55.85,0,0,0-10,4.37c-5.45,3.2-6.29,8.3-6.34,14.32,0,3.89-.39,13.93,5.87,11.31,7.58-3.17,14.86-8,22.08-12L54.64,55.32c-1.78,7.12-10.92,7.47-13.13,14.24-1,3.19-2.77,18.09,3.28,16.94,3.11-.59,5.84-4.63,8.52-6.09.95-.51,3.62-2.13,4.71-2.16,1.95-.06,2,1.44,3.75,2.38C64.2,82,65.38,81.3,66.6,79c2-3.68,3.07-8.21,4.54-12.13,1.21-3.24.92-7.53.36-10.88-.18-1.07-1.29-5.9-2.45-2.79C68,56,66.8,62.47,64.61,64.57c-2.83,2.72-3.4-2-5.83-2.4-2.21-.37-6.12,2.41-7.8,3.5-2.32,1.5-5.6,6-8.59,4.76l1.28,2.3L43.48,72,44,81.62c0-.11,4.37-3,4.53-3.05a24.46,24.46,0,0,0,4.21-2.91c2.64-2.5,3.79-5.75,4.64-9.17.33-1.32-.11-14.31-1.56-13.53L36.28,63.55c-1.11.6-3.16,1.12-4,1.92q-4.24.72,0,7.74l.94-.93a62.19,62.19,0,0,1,9.29-4.69c4.43-1.74,10.15-2.56,12.43-7.3,2.6-5.4,1.78-12.89.06-18.4a1.36,1.36,0,0,0-.9-1.06c-7,1.86-13.22,5.42-19.74,8.49A56,56,0,0,1,24.66,53c-1.67.44-8.71,2.36-10,.54L16,59.08,16,57.83l-.58,9c1.76-3.88,9-6.57,12.64-8.22a95.91,95.91,0,0,1,13.16-4.41c3.16-.9,6.86-2.14,8.46-5.24,2.2-4.29,1.27-10.43.26-14.92,0,0-.63-2.59-1.28-2.3A159.42,159.42,0,0,1,29.1,39.3c-2.8.81-19,5.26-20.31,1.32l.88,10.86s9.64-2.16,10.19-2.27c3.48-.7,7-1.22,10.51-1.76,6.51-1,11.52-2,12.4-9.4a30.8,30.8,0,0,0-.52-11c-1-3.54-2-3.76-5.52-3.74-3.92,0-7.81.1-11.72-.19-3.35-.25-8.64,0-10.62-3.21-1.12-1.82-2,5.33-2,5.6-.12,3-.2,7.05,1.45,9.74Z"/><path class="cls-3" d="M45.77,42.19a9.07,9.07,0,0,0-3.93,4.5,8.66,8.66,0,0,0-.38,3c0,1-.06,2-.06,3.05,0,4,.58,8.18,2.83,11.51A18.16,18.16,0,0,0,48,68.75a7.06,7.06,0,0,0,5.09,1.72,3,3,0,0,0,.66-.09,5,5,0,0,0,.67-.15c.43-.13.87-.27,1.36-.47l2.83-1.1a15.51,15.51,0,0,0,5-2.75c.68-.62,1.44-1.39,2.16-2.07s1.42-1.41,2.07-2.14a12.61,12.61,0,0,0,2.93-4.8c0-.22.1-.44.13-.66l.07-.65,0-.66c0-.22-.06-.5-.08-.74a26.59,26.59,0,0,0-.45-2.94,7.94,7.94,0,0,0-1.09-2.6,15.22,15.22,0,0,0-1.87-2.27,23.08,23.08,0,0,0-4.61-3.82,20.8,20.8,0,0,0-5.54-2.38,14.23,14.23,0,0,0-3-.46,11.31,11.31,0,0,0-1.51.14L51.33,40A9.31,9.31,0,0,0,45.77,42.19Zm0,0a9.31,9.31,0,0,1,5.55-2.29l1.52-.16a15,15,0,0,1,1.52-.19,14.2,14.2,0,0,1,3,.36A22.29,22.29,0,0,1,63.19,42a23.6,23.6,0,0,1,5,3.64A16.83,16.83,0,0,1,70.34,48a9.48,9.48,0,0,1,1.44,2.92A29.71,29.71,0,0,1,72.45,54c0,.26.09.48.12.77l.09.86,0,.87c0,.28-.1.56-.15.84A13.64,13.64,0,0,1,69.32,63c-.69.8-1.41,1.55-2.14,2.28s-1.4,1.41-2.23,2.17a12.8,12.8,0,0,1-2.74,1.82c-1,.48-1.94.86-2.9,1.23s-1.94.68-2.9,1c-.46.17-1,.33-1.54.48a5.53,5.53,0,0,1-.83.15,4.79,4.79,0,0,1-.84.09,8.47,8.47,0,0,1-6.07-2.41,18.8,18.8,0,0,1-3.76-5,19.26,19.26,0,0,1-1.29-2.85,18.71,18.71,0,0,1-.73-3,31.68,31.68,0,0,1-.22-6.15c0-1,.1-2,.16-3a9.62,9.62,0,0,1,.48-3A9.09,9.09,0,0,1,45.77,42.19Z"/><path class="cls-3" d="M49.79,40.17a50.82,50.82,0,0,1,3-7.31c.31-.59.63-1.18,1-1.75a8.13,8.13,0,0,1,1.34-1.62,14.47,14.47,0,0,1,3.46-2.25,22.86,22.86,0,0,1,7.83-2.14,15.63,15.63,0,0,1,8.18,1.25,12.27,12.27,0,0,1,5.71,6.1,9.85,9.85,0,0,1,.7,2,12.06,12.06,0,0,1,.18,2.12,20.47,20.47,0,0,1-.39,4.06,18.28,18.28,0,0,1-1.17,3.91,11.76,11.76,0,0,1-1,1.8c-.38.55-.77,1.08-1.16,1.61a22.2,22.2,0,0,1-2.68,3,18.21,18.21,0,0,1-3.22,2.31,21.59,21.59,0,0,0,5.09-5.83l1-1.67a8.87,8.87,0,0,0,.77-1.69,18,18,0,0,0,.85-3.66,22.72,22.72,0,0,0,.17-3.77,10.11,10.11,0,0,0-.2-1.79,8.29,8.29,0,0,0-.64-1.63,10.55,10.55,0,0,0-4.87-5.1A14.13,14.13,0,0,0,66.56,27a22.93,22.93,0,0,0-7.33,1.68A13.8,13.8,0,0,0,56,30.47a11.45,11.45,0,0,0-2.36,2.88C52.23,35.52,51,37.85,49.79,40.17Z"/><path class="cls-3" d="M59.59,27.66a13,13,0,0,1-.21-4.54,12.5,12.5,0,0,1,.55-2.29,8.59,8.59,0,0,1,1.18-2.13,16.09,16.09,0,0,1,3.34-3.3,7.34,7.34,0,0,1,2.3-1.11,4.91,4.91,0,0,1,.72-.12,5.24,5.24,0,0,1,.71,0,11.74,11.74,0,0,1,1.21.18,9.43,9.43,0,0,1,4.42,2.15,6.15,6.15,0,0,1,1.45,2.15l.85,2A41.91,41.91,0,0,1,77.67,25,7.76,7.76,0,0,1,78,27.27a1.77,1.77,0,0,1-.13.63c-.07.19-.16.34-.24.51l-.53,1,.24-1.1c0-.18.1-.38.12-.54a1.3,1.3,0,0,0,0-.48,7.89,7.89,0,0,0-.72-2c-.62-1.31-1.35-2.59-2-3.91-.36-.65-.71-1.31-1-2a4.41,4.41,0,0,0-1.12-1.46A7.78,7.78,0,0,0,69,16.33a7.08,7.08,0,0,0-1-.17,1.84,1.84,0,0,0-.78,0,6,6,0,0,0-1.72.79,17.76,17.76,0,0,0-3.2,2.73,9.22,9.22,0,0,0-2,3.61A18.76,18.76,0,0,0,59.59,27.66Z"/><path class="cls-3" d="M42.15,45.87a59.27,59.27,0,0,0-7.31,2,13.64,13.64,0,0,0-3.28,1.58,13,13,0,0,0-2.33,2.69,23.44,23.44,0,0,0-3.47,6.42,13.13,13.13,0,0,0-.26,7,10.64,10.64,0,0,0,3.3,6,8.31,8.31,0,0,0,3,1.71,22,22,0,0,0,3.54.85,16.22,16.22,0,0,0,7.25-.55,41.05,41.05,0,0,0,6.91-3,30.4,30.4,0,0,1-6.58,4A16.29,16.29,0,0,1,39.1,75.6a16.94,16.94,0,0,1-4,.11,19.29,19.29,0,0,1-3.9-.73A10.15,10.15,0,0,1,27.57,73a12.46,12.46,0,0,1-4-7,17,17,0,0,1-.34-4A13,13,0,0,1,24,58a22.94,22.94,0,0,1,4-6.77c.41-.51.83-1,1.27-1.47a6.06,6.06,0,0,1,1.58-1.37A14.85,14.85,0,0,1,34.55,47,40.23,40.23,0,0,1,42.15,45.87Z"/><path class="cls-3" d="M25.71,69.5a11.06,11.06,0,0,1-8.49-3.36l-.82-.88c-.24-.29-.49-.59-.72-.9-.47-.62-.94-1.24-1.36-1.92a11,11,0,0,1-1.07-2.2,6.32,6.32,0,0,1-.39-2.63,5.25,5.25,0,0,1,1-2.55,10.48,10.48,0,0,1,1.7-1.8,13.49,13.49,0,0,1,4.14-2.42,10,10,0,0,1,2.37-.54,14,14,0,0,1,2.37.1,32.09,32.09,0,0,1,4.49.87c-1.52,0-3,0-4.52.11a13.26,13.26,0,0,0-2.15.22,9.83,9.83,0,0,0-2,.69,14,14,0,0,0-3.47,2.38,11.14,11.14,0,0,0-1.37,1.51,3.35,3.35,0,0,0-.6,1.62A6.62,6.62,0,0,0,16,61.49a29.33,29.33,0,0,0,2.41,3.6A12.88,12.88,0,0,0,25.71,69.5Z"/></g></svg>