<svg xmlns="http://www.w3.org/2000/svg" viewBox="0 0 100 100"><defs><style>.cls-1{fill:#fff;}.cls-2{fill:#f0bbc0;}.cls-3{fill:#1d1d1b;}</style></defs><title>pImg01</title><g id="Layer_1" data-name="Layer 1"><rect class="cls-1" width="100" height="100"/></g><g id="Layer_3" data-name="Layer 3"><path class="cls-2" d="M48.56,42.65c4,2.34,9.2,1.59,13.69,1.61,2.52,0,15.41,1.47,15.49-2l.6-3.14C76.68,42,69,40.72,66,40.77L52.75,41c-2.49,0-6.22-.67-7.86,1.7-1.09,1.59-1,4.72-.8,6.53s.42,3.59,2.06,4.59c2.46,1.52,7.86.8,10.8.84,3.26,0,25.71-2,26.32,2.16l.2-6.12c-.9,3.12-8,2.41-10.23,2.46A99.38,99.38,0,0,1,61,52.72c-4.47-.44-13.54-4.3-14.92,1.87-.87,3.89-.54,8.85,3.86,9.7,3.62.7,7.61.55,11.27.54,2.15,0,10.1-1.38,11,1.49L72.06,60c-.5,3.1-18.29.53-20.9,1.17-3.75.91-3.43,6.36-2.63,9.37,1.34,5.07,9.32,3.57,13.39,3.68,3.54.09,7.1.09,10.64,0,3.21-.09,9.65-1.59,11.43,2.27l-.57-5C83.4,72.86,77,73,75.84,73c-2.52,0-5-.09-7.57-.23-2.83-.16-5.66-.39-8.47-.75-2.22-.29-5.82-1.68-7.94-1.31-5.28.9-1.24,12.26.38,15.08l-.74-6.55-.07.8.79-2.23c-3,1-7.4.63-10.57.56-4.36-.11-6.46-2.37-7.21-6.64l0,5.42c.21-1.39,5.72-2,6.71-1.79a4.25,4.25,0,0,1,2.71,1.44q0-5.7-.15-2.37c0,2-.35,5.43,1.14,7.13,1.86,2.11,5.05,1.06,7.23,0,2.71-1.31,4-2.62,4.25-5.61.08-1.12.55-5.71-.75-6.55-5.52-3.59-14,4.91-18.44-1.81l-.31,8.63c4.25,6.07,10.36,5.25,16.06,1.84a29.15,29.15,0,0,0,3.76-2c5.36-4.61-.92-.39-1.21-.31-2.41.67-4.58-.74-5.94,1.89C48,80.6,48.58,86.85,52,87.91s8.29-1.38,11.56-2.27A9.89,9.89,0,0,1,67.79,85c1.6.27,2.86,1.31,4.54,1.48,6.09.62,10.44-3.62,10.69-9.4.24-5.29-.86-9.21-6.56-9.92-4.88-.61-12.37-1.69-13.14,4.54-.69,5.61.85,10.39,7.27,9.4,1.51-.23,1.19-8.91-.22-8.94-3.79-.06-7.59-.11-11.39-.2-1.1,0-3.63.21-4.58-.67-1.22-1.13-1.27-5.73-1.31-6.91-.14-4.77.58-10.24,5.59-12.17,2.84-1.09,6.15-1,9.1-1.67l-.48-8.77C61.81,46.6,56.21,51.61,53,58.34c-1.61,3.41-1.74,7.43-5.22,9.53-1.63,1-8.1,3.77-9.42,1.31l.57,5,.07-1-.61,3.14c1.62-3.29,4.64-2,7.31-3.69,2.24-1.38,3-4,3.69-6.41a14,14,0,0,0,.26-5.59c0-.28-.66-3.45-1.21-2.55-2,3.29-3.68,6.81-3.72,10.74,0,2-.14,7.24,3,6.53l-1-6.7-.19,1.57c-.13,1.09-.55,6.27,1,6.7l8,2.18c.63.18,1.79-8.38-.22-8.93l-8-2.18,1,6.7.19-1.57c.07-.57.21-7-1-6.7l-1,.7,0,5.42a19.91,19.91,0,0,1,2.71-5.86l-1-8.15c-.73,2.58-1.37,4.74-4.1,5.76-1.28.48-2.74.34-4,.91-2,.89-2.69,2.58-3,4.58-.72,4.61-.32,9.85,5.38,8.86a14.72,14.72,0,0,0,7-2.78c2.42-2,2.7-4.93,3.75-7.72,2.76-7.35,9-12.76,14.75-17.8,1-.9.65-9-.47-8.77-5.22,1.23-11.06.6-14,6-2.5,4.58-2.51,10.9-2.43,16C51.2,67.93,51,75.11,53.47,79c1.39,2.16,3.32,1.89,5.73,2,3.8.09,7.59.13,11.39.2l-.22-8.94c-1.62.25-5,.93-5.54-1.41l0,7c.93-3.1,9.54-2,11.88-1.69a11.61,11.61,0,0,1,2.75.51q1.63-3.31-1.94,0a10.51,10.51,0,0,1-5.38,1c-1.67-.17-2.94-1.2-4.54-1.48s-3.44.4-5,.89c-3.08.92-9.54,4-12.33,1.09L51,83.53l0-.87-.61,3.14c1.47-1.86,4.6-.58,6.64-1.73a7,7,0,0,0,3.2-5.14C61,75,60.64,70,58,66.87l-.27-.15c-3.68,1.12-6.49,4.07-10.19,5-4.16,1.11-8-.71-10.45-4.14-.7-1-1.11,3-1.12,3.15-.09,1.65-.14,4,.81,5.48,4.74,7.19,12.85-1.83,18.45,1.81l-.75-6.55c0-.35-4.5,2-5.74,2.22-.84.14-5.72-.23-3.1,3-.82-1,0-5.57-.71-7.19-2-4.29-10.05-4.25-11.85.1-1.62,3.89,0,10.52,2,14a6.83,6.83,0,0,0,6,3.67c3.38.26,8.13.47,11.3-.56.68-.23.74-1.71.78-2.24a18.52,18.52,0,0,0,0-5.31c-.36-1.86-.82-4.59-1.7-.54L50.82,80c2.59-1.31,8.06.85,11.07,1.18,4.39.49,8.81.71,13.22.76,6.75.07,10.37-1.59,10.25-8.77-.12-7-3.63-8.25-10.11-8-4.52.17-9,.22-13.55.1-2.42-.06-11.26.88-12.16-1.79l.19,7.72c.83-2.34,8-1.2,9.72-1.18,3.3,0,7,.63,10.26.18,4.21-.57,4.39-4.71,4-8.28-.47-4.64-2.41-6.2-7.07-6.18-3.14,0-6.26.19-9.4.09-2.75-.09-8.24.55-10.16-1.82l.82,4.29V57.25l-.61,4.33c2.11-3.28,9.76-.37,13,0a101.94,101.94,0,0,0,14.08.53c6.3-.22,10.81-.31,10.63-7.56,0-2-.19-4.74-1.5-6.38-2-2.54-6.34-2.3-9.23-2.43-4.56-.2-9.11,0-13.67,0-2.42,0-14.15,1.18-15.23-1.57l.37,7c.6-2.41,12.76-1.34,14.76-1.37,4.88-.09,10.32.5,15.13-.27,6-.95,4.56-9.35,2.59-13.57a.76.76,0,0,0-.51-.59L62,35.32c-4.5,0-9.66.74-13.69-1.61,0,0-2,7.68.22,8.94Z"/><path class="cls-3" d="M67.75,84.1c-8.48,0-17,.05-25.44.14L36,84.32l-3.18.05a3.39,3.39,0,0,1-3-1.33,3.26,3.26,0,0,1-.65-1.62c0-.59,0-1.08,0-1.62l0-3.18-.1-6.36-.36-25.43-.1-12.72,0-6.36V24.16a4,4,0,0,1,4-4.06c8.48,0,17,0,25.44.14l6.36.08,3.18,0h.4a4.23,4.23,0,0,1,.5.05,3.91,3.91,0,0,1,.94.28,3.81,3.81,0,0,1,1.49,1.24,3.65,3.65,0,0,1,.66,1.81,8.25,8.25,0,0,1,0,.85v.8l0,3.18-.09,6.36-.36,25.43-.1,12.72,0,6.36c0,1,.17,2.17-.4,3.12A3,3,0,0,1,67.75,84.1Zm0,0a3,3,0,0,0,2.6-1.54c.56-.94.33-2.07.38-3.11l0-6.36-.1-12.72-.37-25.43-.09-6.36L70.1,25.4v-.8c0-.26,0-.54,0-.73A2.35,2.35,0,0,0,68.66,22a2,2,0,0,0-.58-.16c-.1,0-.2,0-.3,0H67.4l-3.18,0L57.86,22c-8.48.09-17,.12-25.44.14a2,2,0,0,0-1.75,1,2,2,0,0,0-.26,1v1.59l0,6.36-.1,12.72-.36,25.43-.09,6.36,0,3.18c0,.52,0,1.09,0,1.56a2.71,2.71,0,0,0,.48,1.31,2.78,2.78,0,0,0,2.52,1.16l3.18,0,6.36.08C50.79,84.05,59.27,84.08,67.75,84.1Z"/><path class="cls-3" d="M66.85,35.39c-4.24,0-8.48.21-12.73.49L52.53,36a1.82,1.82,0,0,1-.58-.05,1.67,1.67,0,0,1-.58-.29,1.64,1.64,0,0,1-.63-1.13l-.17-3.24-.1-3.18,0-1.59a2,2,0,0,1,2-2c4.24,0,8.49.2,12.73.49l1.59.11a1.43,1.43,0,0,1,1,.36,1.35,1.35,0,0,1,.43.93L68,29.59l-.1,3.18,0,1.6A1,1,0,0,1,66.85,35.39Zm0,0a1,1,0,0,0,1-1v-1.6l-.11-3.18-.16-3.16a.65.65,0,0,0-.8-.54l-1.59.1c-4.24.29-8.49.5-12.73.5,0,0,0,0,0,0l0,1.59-.1,3.18-.16,3.13c0,.16.06.37.4.38l1.59.1C58.37,35.18,62.61,35.39,66.85,35.39Z"/><path class="cls-3" d="M66.85,50.05c-4.24,0-8.48.21-12.73.5l-1.59.1a1.82,1.82,0,0,1-.58,0,1.64,1.64,0,0,1-.58-.28,1.66,1.66,0,0,1-.63-1.14L50.57,46l-.1-3.19,0-1.59a2,2,0,0,1,2-2c4.24,0,8.49.21,12.73.5l1.59.1a1.48,1.48,0,0,1,1,.36,1.37,1.37,0,0,1,.43.94L68,44.25l-.1,3.19,0,1.59A1,1,0,0,1,66.85,50.05Zm0,0a1,1,0,0,0,1-1V47.44l-.11-3.19-.16-3.16a.67.67,0,0,0-.8-.54l-1.59.1c-4.24.29-8.49.5-12.73.5,0,0,0,0,0,0l0,1.59L52.29,46l-.16,3.12c0,.16.06.37.4.38l1.59.1C58.37,49.84,62.61,50.05,66.85,50.05Z"/><path class="cls-3" d="M66.85,64.71c-4.24,0-8.48.21-12.73.5l-1.59.1a1.82,1.82,0,0,1-.58,0,1.64,1.64,0,0,1-.58-.28,1.66,1.66,0,0,1-.63-1.13l-.17-3.24-.1-3.18,0-1.6a2,2,0,0,1,2-2c4.24,0,8.49.21,12.73.5l1.59.1a1.44,1.44,0,0,1,1,.37,1.33,1.33,0,0,1,.43.93L68,58.92l-.1,3.18,0,1.59A1,1,0,0,1,66.85,64.71Zm0,0a1,1,0,0,0,1-1V62.1l-.11-3.18-.16-3.16a.67.67,0,0,0-.8-.55l-1.59.11c-4.24.29-8.49.5-12.73.49,0,0,0,0,0,0l0,1.6-.1,3.18-.16,3.13c0,.15.06.36.4.37l1.59.11C58.37,64.5,62.61,64.71,66.85,64.71Z"/><path class="cls-3" d="M66.85,79.38c-4.24,0-8.48.2-12.73.49l-1.59.1a1.53,1.53,0,0,1-.58,0,1.86,1.86,0,0,1-.58-.29,1.64,1.64,0,0,1-.63-1.13l-.17-3.24-.1-3.18,0-1.59a2,2,0,0,1,2-2c4.24,0,8.49.2,12.73.49l1.59.1a1.49,1.49,0,0,1,1,.37,1.35,1.35,0,0,1,.43.93L68,73.58l-.1,3.18,0,1.59A1,1,0,0,1,66.85,79.38Zm0,0a1,1,0,0,0,1-1V76.76l-.11-3.18-.16-3.16a.65.65,0,0,0-.8-.54l-1.59.1c-4.24.29-8.49.5-12.73.49,0,0,0,0,0,0l0,1.59-.1,3.18-.16,3.13c0,.16.06.37.4.38l1.59.1C58.37,79.17,62.61,79.38,66.85,79.38Z"/><path class="cls-3" d="M47.74,35.39c-4.24,0-8.49.21-12.73.49L33.42,36a1.81,1.81,0,0,1-.58-.05,1.58,1.58,0,0,1-.58-.29,1.64,1.64,0,0,1-.63-1.13l-.17-3.24-.11-3.18V26.51a2,2,0,0,1,2-2c4.24,0,8.48.2,12.73.49l1.59.11a1.39,1.39,0,0,1,1,.36,1.32,1.32,0,0,1,.44.93l-.16,3.21-.1,3.18,0,1.6A1,1,0,0,1,47.74,35.39Zm0,0a1,1,0,0,0,1-1l0-1.6-.1-3.18-.16-3.16a.66.66,0,0,0-.8-.54l-1.59.1c-4.25.29-8.49.5-12.73.5,0,0,0,0,0,0l0,1.59-.11,3.18L33,34.41a.37.37,0,0,0,.41.38l1.59.1C39.25,35.18,43.5,35.39,47.74,35.39Z"/><path class="cls-3" d="M47.74,50.05c-4.24,0-8.49.21-12.73.5l-1.59.1a1.81,1.81,0,0,1-.58,0,1.56,1.56,0,0,1-.58-.28,1.66,1.66,0,0,1-.63-1.14L31.46,46l-.11-3.19V41.17a2,2,0,0,1,2-2c4.24,0,8.48.21,12.73.5l1.59.1a1.44,1.44,0,0,1,1,.36,1.34,1.34,0,0,1,.44.94l-.16,3.2-.1,3.19,0,1.59A1,1,0,0,1,47.74,50.05Zm0,0a1,1,0,0,0,1-1l0-1.59-.1-3.19-.16-3.16a.67.67,0,0,0-.8-.54l-1.59.1c-4.25.29-8.49.5-12.73.5,0,0,0,0,0,0l0,1.59L33.17,46,33,49.07a.37.37,0,0,0,.41.38l1.59.1C39.25,49.84,43.5,50.05,47.74,50.05Z"/><path class="cls-3" d="M47.74,64.71c-4.24,0-8.49.21-12.73.5l-1.59.1a1.81,1.81,0,0,1-.58,0,1.56,1.56,0,0,1-.58-.28,1.66,1.66,0,0,1-.63-1.13l-.17-3.24-.11-3.18v-1.6a2,2,0,0,1,2-2c4.24,0,8.48.21,12.73.5l1.59.1a1.4,1.4,0,0,1,1,.37,1.3,1.3,0,0,1,.44.93l-.16,3.21-.1,3.18,0,1.59A1,1,0,0,1,47.74,64.71Zm0,0a1,1,0,0,0,1-1l0-1.59-.1-3.18-.16-3.16a.67.67,0,0,0-.8-.55l-1.59.11c-4.25.29-8.49.5-12.73.49,0,0,0,0,0,0l0,1.6-.11,3.18L33,63.74a.36.36,0,0,0,.41.37l1.59.11C39.25,64.5,43.5,64.71,47.74,64.71Z"/><path class="cls-3" d="M47.74,79.38c-4.24,0-8.49.2-12.73.49l-1.59.1a1.52,1.52,0,0,1-.58,0,1.76,1.76,0,0,1-.58-.29,1.64,1.64,0,0,1-.63-1.13l-.17-3.24-.11-3.18V70.5a2,2,0,0,1,2-2c4.24,0,8.48.2,12.73.49l1.59.1a1.45,1.45,0,0,1,1,.37,1.32,1.32,0,0,1,.44.93l-.16,3.21-.1,3.18,0,1.59A1,1,0,0,1,47.74,79.38Zm0,0a1,1,0,0,0,1-1l0-1.59-.1-3.18-.16-3.16a.66.66,0,0,0-.8-.54l-1.59.1c-4.25.29-8.49.5-12.73.49,0,0,0,0,0,0l0,1.59-.11,3.18L33,78.4a.37.37,0,0,0,.41.38l1.59.1C39.25,79.17,43.5,79.38,47.74,79.38Z"/></g></svg>