<?xml version="1.0" encoding="utf-8"?>
<!-- Generator: Adobe Illustrator 24.0.2, SVG Export Plug-In . SVG Version: 6.00 Build 0)  -->
<svg version="1.1" xmlns="http://www.w3.org/2000/svg" xmlns:xlink="http://www.w3.org/1999/xlink" x="0px" y="0px"
	 viewBox="0 0 1417.32 708.66" style="enable-background:new 0 0 1417.32 708.66;" xml:space="preserve">
<style type="text/css">
	.st0{fill:#512F14;stroke:#000000;stroke-width:9;stroke-miterlimit:10;}
	.st1{fill:#5E3D22;}
	.st2{fill:#7F604A;}
	.st3{fill:#F8F7F6;}
	.st4{fill:none;stroke:#000000;stroke-width:9;stroke-miterlimit:10;}
	.st5{fill:#946C44;}
	.st6{fill:#FFFFFF;}
	.st7{fill:#5C2B11;stroke:#CA9E67;stroke-width:3;stroke-miterlimit:10;}
	.st8{fill:#5D2C12;stroke:#CA9E67;stroke-width:3;stroke-miterlimit:10;}
	.st9{fill:#5F2D14;stroke:#CA9E67;stroke-width:3;stroke-miterlimit:10;}
	.st10{fill:#5E2C13;stroke:#CA9E67;stroke-width:3;stroke-miterlimit:10;}
	.st11{fill:#602F15;stroke:#CA9E67;stroke-width:3;stroke-miterlimit:10;}
	.st12{fill:none;}
	.st13{fill:none;stroke:#000000;stroke-miterlimit:10;}
	.st14{fill:none;stroke:#000000;stroke-width:8;stroke-miterlimit:10;}
	.st15{fill:#3D1D10;}
	.st16{fill:#512F14;}
	.st17{fill:#F6F5F5;}
	.st18{fill:#9C734D;}
	.st19{fill:#846E5D;}
	.st20{fill:none;stroke:#B88D60;stroke-width:6;stroke-miterlimit:10;}
	.st21{fill:#704224;}
	.st22{fill:none;stroke:#000000;stroke-width:16.798;stroke-miterlimit:10;}
	.st23{fill:none;stroke:#B88D60;stroke-width:12.5985;stroke-miterlimit:10;}
	.st24{fill:#481E10;}
	.st25{fill:none;stroke:#000000;stroke-width:20.637;stroke-miterlimit:10;}
	.st26{fill:none;stroke:#B88D60;stroke-width:15.4778;stroke-miterlimit:10;}
	.st27{fill:#582912;stroke:#FAC38A;stroke-width:4;stroke-miterlimit:10;}
	.st28{fill:none;stroke:#000000;stroke-width:3.364;stroke-miterlimit:10;}
	.st29{fill:none;stroke:#B88D60;stroke-width:2.523;stroke-miterlimit:10;}
	.st30{fill:none;stroke:#000000;stroke-width:3.9837;stroke-miterlimit:10;}
	.st31{fill:none;stroke:#B88D60;stroke-width:2.9878;stroke-miterlimit:10;}
	.st32{fill:#582912;stroke:#FAC38A;stroke-width:10.3516;stroke-miterlimit:10;}
</style>
<g id="Layer_1">
	<g>
		<g id="XMLID_12_">
			<g>
				<path class="st15" d="M978.2,261.17c15.43-0.08,25.55-8.65,24.31,65.73c-1.26,74.36-18.91,282.54-285.51,283.87
					c-6.09,0.03-12.05-0.07-17.87-0.31c20.19-1.24,38.91-3.64,56.22-7.11c263.45-52.54,206.29-345.38,205.71-348.31
					C965.38,258.25,970.68,261.21,978.2,261.17z"/>
				<path class="st21" d="M961.05,255.04c0.58,2.94,57.74,295.78-205.71,348.31c0,0-267.51,16.69-277.74-238.48
					C467.48,112.34,680.54,99.76,684.95,99.53c9.41,42.22,47.09,154.16,182.79,156.1c22.83,0.35,48.41-2.43,77.08-9.16l0.04-0.21
					c2.84,0.57,4.41,0.84,4.41,0.84c3.76,0.82,7.2,4.52,11.78,7.92C961.05,255.02,961.05,255.02,961.05,255.04z"/>
				<path class="st17" d="M944.86,246.26l-0.04,0.21c-28.67,6.74-54.25,9.51-77.08,9.16l0-0.19
					C736.51,239.14,700.01,83.88,700.01,83.88c8.65,0.61,18.68,1.78,27.78,3.7c0,0,30.58,164.72,191.66,152.59l0.02,0
					C930.82,243.33,939.84,245.28,944.86,246.26z"/>
				<path class="st18" d="M832.26,202.16c29.01,19.45,63.28,31.37,87.18,38.01C758.37,252.3,727.79,87.58,727.79,87.58
					c11.62,2.46,21.72,6.17,25.38,11.48C761.36,110.95,781.7,168.28,832.26,202.16z"/>
				<path class="st18" d="M684.95,99.53c-2.17-9.84-2.83-15.88-2.83-15.88l0-0.17c1.53-0.03,3.07-0.06,4.6-0.07
					c3.65-0.02,8.23,0.13,13.29,0.46c0,0,36.5,155.26,167.73,171.57l0,0.19C732.05,253.69,694.36,141.75,684.95,99.53z"/>
				<path class="st19" d="M477.61,364.87c10.23,255.18,277.74,238.48,277.74,238.48c-17.31,3.47-36.02,5.87-56.22,7.11
					c-0.02,0-0.04,0-0.06,0c-248.47-9.99-244.24-255.07-243.59-283.68c0.67-29.06,20.15-239.2,226.65-243.3l0,0.17
					c0,0,0.66,6.04,2.83,15.88C680.54,99.76,467.48,112.34,477.61,364.87z"/>
			</g>
			<g>
				<path class="st22" d="M919.47,240.17c11.35,3.16,20.37,5.11,25.4,6.09c2.84,0.57,4.41,0.84,4.41,0.84
					c3.76,0.82,7.2,4.52,11.78,7.92"/>
				<path class="st22" d="M699.06,610.46c-248.47-9.99-244.24-255.07-243.59-283.68c0.67-29.06,20.15-239.2,226.65-243.3
					c1.53-0.03,3.07-0.06,4.6-0.07c3.65-0.02,8.23,0.13,13.29,0.46c8.65,0.61,18.68,1.78,27.78,3.7
					c11.62,2.46,21.72,6.17,25.38,11.48c8.19,11.89,28.53,69.21,79.09,103.1c29.01,19.45,63.28,31.37,87.18,38.01"/>
				<path class="st22" d="M961.05,255.04c4.32,3.21,9.63,6.17,17.14,6.13c15.43-0.08,25.55-8.65,24.31,65.73
					c-1.26,74.36-18.91,282.54-285.51,283.87c-6.09,0.03-12.05-0.07-17.87-0.31"/>
				<path class="st22" d="M682.12,83.65c0,0,0.66,6.04,2.83,15.88c9.41,42.22,47.09,154.16,182.79,156.1
					c22.83,0.35,48.41-2.43,77.08-9.16"/>
				<path class="st22" d="M961.05,255.02c0,0,0,0,0,0.02c0.58,2.94,57.74,295.78-205.71,348.31c-17.31,3.47-36.02,5.87-56.22,7.11
					c-0.02,0-0.04,0-0.06,0"/>
				<line class="st22" x1="919.45" y1="240.17" x2="919.47" y2="240.17"/>
			</g>
		</g>
		<g>
			<path class="st23" d="M690.13,604.54c0,0,24.46,9.1,43.48-52.33s5.5-106.08,142.22-121.13c69.31-7.63,87.9-158.22,87.9-158.22"/>
			<path class="st23" d="M533.29,535.93c0,0,17.76-33.21,62.18-54.43s60.02,0.95,155.92-68.83c68.6-49.91,30.27-164.59,43.22-176.95
				"/>
			<path class="st23" d="M479.39,454.99c0,0,5.18-30.9,53.24-50.47c48.07-19.56,101.95,3.69,152.09-50.75
				c50.14-54.44,26.45-120.11,39.15-167.51"/>
			<path class="st23" d="M595.54,108.24c0,0-6.71,54.63,14.41,78.59s1.71,143.27-96.65,161.57c-34.42,6.4-49.93,39.76-49.93,39.76"
				/>
		</g>
		<g>
			<path class="st22" d="M949.27,247.09c7.32,1.59,13.48,14.16,28.93,14.08c15.44-0.08,25.56-8.66,24.31,65.72
				c-1.25,74.38-18.9,282.55-285.5,283.89c-266.6,1.34-262.19-254.72-261.53-283.99c0.67-29.26,20.42-242.32,231.24-243.38
				c17.88-0.09,58.27,3.77,66.46,15.65c8.19,11.88,28.52,69.22,79.09,103.1C882.83,236.05,949.27,247.09,949.27,247.09z"/>
			<path class="st22" d="M682.11,83.43c0,0,23.66,218.99,262.72,162.83"/>
			<path class="st22" d="M961.06,255.03c0,0,67.05,335.5-261.99,355.44"/>
		</g>
	</g>
	<g>
		<g>
			<g>
				<path class="st24" d="M106.25,524.41c-11.53,0-22.46-2.17-32.48-6.45c-9.99-4.27-18.8-10.22-26.18-17.69
					c-7.37-7.46-13.25-16.38-17.47-26.5c-4.23-10.14-6.37-21.2-6.37-32.89c0-15.13,2.2-29.62,6.55-43.06
					c4.38-13.55,10.93-25.61,19.46-35.84c8.59-10.3,19.36-18.55,32.03-24.5c12.67-5.95,27.4-8.97,43.77-8.97
					c6.14,0,12.52,0.5,18.97,1.47c6.69,1.02,13,2.94,18.74,5.72l3.25,1.57l-8.44,63.59l-5.53-1.52c-2.22-0.61-4.46-1.04-6.65-1.26
					c-2.31-0.24-4.65-0.36-6.95-0.36c-5.85,0-11.49,0.78-16.75,2.31c-5.12,1.49-9.69,3.78-13.59,6.81
					c-3.81,2.96-6.9,6.73-9.17,11.19c-2.25,4.42-3.38,9.76-3.38,15.89c0,3.75,0.58,6.98,1.71,9.6c1.11,2.56,2.62,4.61,4.6,6.26
					c2.03,1.69,4.5,2.98,7.34,3.81c3.04,0.89,6.47,1.34,10.18,1.34c2.84,0,5.84-0.31,8.93-0.93c3.22-0.65,6.44-1.5,9.57-2.54
					c3.16-1.05,6.28-2.29,9.28-3.66c3.02-1.39,5.82-2.83,8.33-4.29l8.31-4.82l-6.2,72.84l-2.46,1.26
					c-3.54,1.82-7.43,3.45-11.55,4.85c-4.02,1.37-8.22,2.59-12.49,3.61c-4.28,1.03-8.62,1.82-12.9,2.35
					C114.41,524.14,110.22,524.41,106.25,524.41z"/>
				<path class="st6" d="M125.57,333.51c5.92,0,11.99,0.47,18.22,1.42c6.22,0.95,11.99,2.7,17.31,5.28l-7.21,54.33
					c-2.49-0.69-4.98-1.16-7.47-1.42c-2.49-0.26-4.98-0.39-7.47-0.39c-6.35,0-12.4,0.84-18.15,2.51
					c-5.75,1.67-10.84,4.23-15.26,7.66c-4.42,3.43-7.94,7.72-10.56,12.87c-2.62,5.15-3.93,11.2-3.93,18.15
					c0,4.46,0.71,8.33,2.12,11.59c1.42,3.26,3.41,5.97,5.99,8.11c2.57,2.15,5.62,3.73,9.14,4.76c3.52,1.03,7.38,1.54,11.59,1.54
					c3.17,0,6.48-0.34,9.91-1.03c3.43-0.69,6.82-1.59,10.17-2.7c3.35-1.12,6.61-2.4,9.78-3.86c3.17-1.46,6.09-2.96,8.75-4.51
					l-5.15,60.51c-3.35,1.72-6.97,3.24-10.88,4.57c-3.91,1.33-7.92,2.49-12.04,3.48c-4.12,0.99-8.24,1.74-12.36,2.25
					c-4.12,0.52-8.07,0.77-11.84,0.77c-10.9,0-21.07-2.02-30.51-6.05c-9.44-4.03-17.64-9.57-24.59-16.61
					c-6.95-7.04-12.42-15.34-16.41-24.91c-3.99-9.57-5.99-19.89-5.99-30.96c0-14.68,2.1-28.52,6.31-41.52
					c4.2-13,10.38-24.4,18.54-34.18c8.15-9.78,18.26-17.51,30.32-23.17C95.98,336.34,109.86,333.51,125.57,333.51 M125.57,323.51
					c-17.12,0-32.56,3.18-45.9,9.45c-13.34,6.26-24.69,14.95-33.75,25.82c-8.94,10.72-15.79,23.34-20.37,37.51
					c-4.51,13.93-6.79,28.94-6.79,44.59c0,12.35,2.27,24.06,6.76,34.81c4.47,10.72,10.7,20.17,18.53,28.09
					c7.84,7.93,17.18,14.25,27.77,18.78c10.64,4.55,22.23,6.85,34.44,6.85c4.17,0,8.57-0.29,13.09-0.85
					c4.46-0.56,8.99-1.38,13.45-2.45c4.4-1.05,8.75-2.31,12.93-3.73c4.35-1.48,8.46-3.21,12.22-5.14l4.93-2.53l0.47-5.52l5.15-60.51
					l1.63-19.14l-16.61,9.64c-2.37,1.38-5.03,2.75-7.91,4.07c-2.83,1.3-5.78,2.47-8.77,3.46c-2.94,0.98-5.96,1.78-8.97,2.39
					c-2.77,0.55-5.44,0.84-7.95,0.84c-3.23,0-6.19-0.38-8.78-1.14c-2.21-0.65-4.02-1.58-5.55-2.85c-1.37-1.14-2.42-2.59-3.22-4.41
					c-0.86-1.98-1.3-4.54-1.3-7.6c0-5.33,0.96-9.91,2.84-13.62c1.96-3.86,4.5-6.97,7.78-9.51c3.4-2.64,7.41-4.64,11.92-5.96
					c4.82-1.4,9.98-2.11,15.36-2.11c2.13,0,4.3,0.11,6.44,0.33c1.92,0.2,3.89,0.57,5.84,1.11l11.06,3.04l1.51-11.37l7.21-54.33
					l0.95-7.17l-6.51-3.15c-6.2-3-12.98-5.07-20.17-6.16C138.59,324.02,131.95,323.51,125.57,323.51L125.57,323.51z"/>
			</g>
			<g>
				<polygon class="st24" points="252.18,469.82 232.37,469.82 230.57,526.21 162.91,526.21 168.08,334.97 239.42,338.27 
					235.57,430.47 253.95,430.47 254.21,330.95 322.79,332.76 327.13,525.97 252.7,529.54 				"/>
				<path class="st6" d="M259.2,336.09l58.7,1.54l4.12,183.58l-64.37,3.09l-0.52-59.48h-29.61l-1.8,56.39h-57.67l4.89-181.01
					l61.28,2.83l-3.86,92.43h28.58L259.2,336.09 M249.22,325.82l-0.03,10.24l-0.23,89.41h-8.18l3.43-82.02l0.42-9.95l-9.95-0.46
					l-61.28-2.83l-10.18-0.47l-0.28,10.19l-4.89,181.01l-0.28,10.27h10.27h57.67h9.69l0.31-9.68l1.49-46.71h10.01l0.43,49.56
					l0.09,10.4l10.39-0.5l64.37-3.09l9.74-0.47l-0.22-9.75l-4.12-183.58l-0.21-9.52l-9.52-0.25l-58.7-1.54L249.22,325.82
					L249.22,325.82z"/>
			</g>
			<g>
				<path class="st24" d="M411.75,521.32c-8.15,0-16.04-1.06-23.44-3.15c-7.36-2.08-14.36-5.04-20.8-8.8
					c-6.45-3.77-12.36-8.37-17.59-13.69c-5.22-5.3-9.72-11.28-13.4-17.78c-3.66-6.46-6.55-13.5-8.58-20.9
					c-2.04-7.43-3.07-15.29-3.07-23.34c0-7.84,0.96-15.64,2.85-23.17c1.89-7.53,4.66-14.74,8.23-21.41
					c3.56-6.68,7.94-12.91,12.99-18.51c5.08-5.62,10.85-10.54,17.15-14.62c6.32-4.09,13.26-7.32,20.62-9.59
					c7.4-2.28,15.31-3.44,23.49-3.44c12.99,0,25.04,2.06,35.81,6.11c10.86,4.09,20.29,10.04,28.01,17.67
					c7.72,7.63,13.78,16.96,18.01,27.74c4.2,10.71,6.33,22.78,6.33,35.88c0,8.18-0.96,16.19-2.85,23.8
					c-1.89,7.61-4.66,14.87-8.23,21.55c-3.57,6.69-7.98,12.91-13.09,18.47c-5.13,5.59-10.98,10.45-17.39,14.44
					c-6.4,4-13.46,7.15-20.99,9.37C428.27,520.19,420.18,521.32,411.75,521.32z M411.75,409.57c-3.29,0-6.22,0.58-8.73,1.73
					c-2.57,1.18-4.71,2.75-6.54,4.79c-1.82,2.03-3.24,4.46-4.22,7.21c-1.01,2.84-1.52,5.89-1.52,9.08c0,3.12,0.46,6.3,1.35,9.44
					c0.87,3.05,2.19,5.83,3.91,8.27c1.66,2.36,3.67,4.21,6.12,5.66c2.28,1.35,4.92,2.01,8.08,2.01c3.24,0,6.16-0.63,8.67-1.87
					c2.6-1.28,4.74-2.96,6.53-5.14c1.83-2.22,3.27-4.84,4.27-7.77c1.02-2.98,1.53-6.12,1.53-9.33c0-3.17-0.47-6.29-1.39-9.28
					c-0.9-2.9-2.21-5.49-3.9-7.71c-1.65-2.16-3.64-3.87-6.09-5.21C417.52,410.19,414.87,409.57,411.75,409.57z"/>
				<path class="st6" d="M410.21,347.93c12.44,0,23.79,1.93,34.05,5.79c10.25,3.86,19.01,9.38,26.26,16.54
					c7.25,7.17,12.87,15.83,16.86,26.01c3.99,10.17,5.99,21.52,5.99,34.05c0,7.81-0.9,15.34-2.7,22.59
					c-1.8,7.25-4.4,14.05-7.79,20.41c-3.39,6.35-7.51,12.17-12.36,17.44c-4.85,5.28-10.3,9.81-16.35,13.58
					c-6.05,3.78-12.64,6.72-19.76,8.82c-7.13,2.1-14.68,3.15-22.66,3.15c-7.72,0-15.08-0.99-22.08-2.96
					c-7-1.97-13.54-4.74-19.63-8.3c-6.09-3.56-11.61-7.85-16.54-12.87c-4.94-5.02-9.14-10.6-12.62-16.74
					c-3.48-6.14-6.18-12.72-8.11-19.76c-1.93-7.04-2.9-14.37-2.9-22.01c0-7.47,0.9-14.78,2.7-21.95c1.8-7.16,4.4-13.92,7.79-20.28
					c3.39-6.35,7.49-12.19,12.29-17.51c4.81-5.32,10.19-9.91,16.16-13.77c5.96-3.86,12.42-6.87,19.38-9.01
					C395.14,349,402.48,347.93,410.21,347.93 M410.21,462.76c4.03,0,7.66-0.79,10.88-2.38c3.22-1.59,5.94-3.73,8.17-6.44
					c2.23-2.7,3.95-5.81,5.15-9.33c1.2-3.52,1.8-7.17,1.8-10.94c0-3.69-0.54-7.27-1.61-10.75c-1.07-3.48-2.64-6.57-4.7-9.27
					c-2.06-2.7-4.61-4.89-7.66-6.57c-3.05-1.67-6.55-2.51-10.49-2.51c-4.03,0-7.64,0.73-10.81,2.19c-3.18,1.46-5.9,3.46-8.17,5.99
					c-2.27,2.53-4.01,5.49-5.21,8.88c-1.2,3.39-1.8,6.97-1.8,10.75c0,3.6,0.52,7.21,1.55,10.81c1.03,3.6,2.57,6.87,4.63,9.78
					c2.06,2.92,4.61,5.28,7.66,7.08C402.63,461.86,406.17,462.76,410.21,462.76 M410.21,337.93c-8.68,0-17.08,1.23-24.96,3.66
					c-7.8,2.41-15.16,5.83-21.86,10.17c-6.67,4.32-12.77,9.52-18.14,15.47c-5.33,5.9-9.94,12.47-13.7,19.5
					c-3.76,7.03-6.67,14.62-8.66,22.54c-1.99,7.93-3.01,16.14-3.01,24.39c0,8.5,1.09,16.8,3.25,24.66
					c2.14,7.8,5.19,15.22,9.05,22.04c3.89,6.87,8.66,13.2,14.19,18.82c5.53,5.63,11.8,10.51,18.63,14.5
					c6.79,3.97,14.18,7.1,21.96,9.29c7.84,2.21,16.18,3.34,24.79,3.34c8.91,0,17.48-1.2,25.49-3.56c7.96-2.35,15.44-5.69,22.23-9.93
					c6.78-4.23,12.98-9.38,18.42-15.3c5.4-5.88,10.05-12.44,13.82-19.5c3.76-7.05,6.68-14.69,8.67-22.7c1.99-8,3-16.42,3-25
					c0-13.73-2.25-26.41-6.68-37.7c-4.48-11.43-10.93-21.34-19.14-29.47c-8.23-8.13-18.24-14.45-29.77-18.79
					C436.44,340.09,423.8,337.93,410.21,337.93L410.21,337.93z M410.21,452.76c-2.23,0-4.04-0.43-5.53-1.31
					c-1.84-1.09-3.34-2.47-4.58-4.24c-1.42-2.01-2.46-4.22-3.19-6.77c-0.77-2.69-1.16-5.41-1.16-8.07c0-2.66,0.4-5.08,1.23-7.41
					c0.77-2.16,1.82-3.98,3.23-5.54c1.36-1.52,2.97-2.69,4.91-3.58c1.84-0.85,4.07-1.27,6.64-1.27c2.26,0,4.12,0.42,5.68,1.28
					c1.83,1,3.3,2.27,4.52,3.86c1.35,1.78,2.37,3.79,3.1,6.16c0.77,2.5,1.16,5.13,1.16,7.8c0,2.69-0.41,5.22-1.27,7.71
					c-0.82,2.39-1.93,4.42-3.4,6.2c-1.33,1.61-2.93,2.87-4.88,3.83C414.82,452.32,412.71,452.76,410.21,452.76L410.21,452.76z"/>
			</g>
			<g>
				<path class="st24" d="M575.12,524.41c-11.53,0-22.46-2.17-32.48-6.45c-9.99-4.27-18.8-10.22-26.18-17.69
					c-7.37-7.46-13.25-16.38-17.47-26.5c-4.23-10.13-6.37-21.2-6.37-32.88c0-15.13,2.2-29.62,6.55-43.06
					c4.38-13.55,10.93-25.61,19.45-35.84c8.59-10.3,19.36-18.55,32.03-24.5c12.67-5.95,27.4-8.97,43.77-8.97
					c6.14,0,12.52,0.5,18.97,1.47c6.69,1.02,13,2.94,18.74,5.72l3.25,1.57l-8.44,63.59l-5.53-1.52c-2.23-0.61-4.46-1.04-6.66-1.26
					c-2.31-0.24-4.65-0.36-6.95-0.36c-5.85,0-11.49,0.78-16.75,2.31c-5.12,1.49-9.69,3.78-13.59,6.81
					c-3.81,2.96-6.9,6.73-9.17,11.19c-2.25,4.42-3.38,9.76-3.38,15.89c0,3.75,0.58,6.98,1.71,9.6c1.11,2.56,2.62,4.61,4.6,6.26
					c2.03,1.7,4.5,2.98,7.34,3.81c3.04,0.89,6.47,1.34,10.18,1.34c2.84,0,5.84-0.31,8.93-0.93c3.22-0.64,6.44-1.5,9.57-2.54
					c3.16-1.05,6.28-2.29,9.28-3.66c3.02-1.39,5.82-2.83,8.33-4.29l8.31-4.82l-6.2,72.84l-2.46,1.26
					c-3.54,1.82-7.43,3.45-11.55,4.86c-4.02,1.37-8.22,2.58-12.49,3.6c-4.28,1.03-8.62,1.82-12.9,2.35
					C583.28,524.14,579.08,524.41,575.12,524.41z"/>
				<path class="st6" d="M594.43,333.51c5.92,0,11.99,0.47,18.22,1.42c6.22,0.95,11.99,2.7,17.31,5.28l-7.21,54.33
					c-2.49-0.69-4.98-1.16-7.47-1.42c-2.49-0.26-4.98-0.39-7.47-0.39c-6.35,0-12.4,0.84-18.15,2.51
					c-5.75,1.67-10.84,4.23-15.26,7.66c-4.42,3.43-7.94,7.72-10.56,12.87c-2.62,5.15-3.93,11.2-3.93,18.15
					c0,4.46,0.71,8.33,2.12,11.59c1.42,3.26,3.41,5.97,5.99,8.11c2.57,2.15,5.62,3.73,9.14,4.76c3.52,1.03,7.38,1.54,11.59,1.54
					c3.17,0,6.48-0.34,9.91-1.03c3.43-0.69,6.82-1.59,10.17-2.7c3.35-1.12,6.61-2.4,9.78-3.86c3.17-1.46,6.09-2.96,8.75-4.51
					l-5.15,60.51c-3.35,1.72-6.97,3.24-10.88,4.57c-3.91,1.33-7.92,2.49-12.04,3.48c-4.12,0.99-8.24,1.74-12.36,2.25
					c-4.12,0.52-8.07,0.77-11.84,0.77c-10.9,0-21.07-2.02-30.51-6.05c-9.44-4.03-17.64-9.57-24.59-16.61
					c-6.95-7.04-12.42-15.34-16.41-24.91c-3.99-9.57-5.99-19.89-5.99-30.96c0-14.68,2.1-28.52,6.31-41.52
					c4.2-13,10.38-24.4,18.54-34.18c8.15-9.78,18.26-17.51,30.32-23.17C564.84,336.34,578.72,333.51,594.43,333.51 M594.43,323.51
					c-17.12,0-32.56,3.18-45.9,9.45c-13.34,6.26-24.69,14.95-33.75,25.82c-8.94,10.72-15.79,23.34-20.37,37.51
					c-4.51,13.93-6.79,28.94-6.79,44.59c0,12.35,2.27,24.06,6.76,34.81c4.47,10.72,10.7,20.17,18.53,28.09
					c7.84,7.93,17.18,14.25,27.77,18.78c10.64,4.55,22.23,6.85,34.44,6.85c4.17,0,8.58-0.29,13.09-0.85
					c4.46-0.56,8.99-1.38,13.45-2.45c4.4-1.05,8.75-2.31,12.93-3.73c4.35-1.48,8.46-3.21,12.22-5.14l4.93-2.53l0.47-5.52l5.15-60.51
					l1.63-19.14l-16.61,9.64c-2.37,1.38-5.03,2.75-7.91,4.07c-2.83,1.3-5.78,2.47-8.77,3.46c-2.94,0.98-5.96,1.78-8.97,2.39
					c-2.77,0.55-5.44,0.84-7.95,0.84c-3.23,0-6.19-0.38-8.78-1.14c-2.21-0.65-4.02-1.58-5.55-2.85c-1.37-1.14-2.42-2.59-3.22-4.41
					c-0.86-1.98-1.3-4.54-1.3-7.6c0-5.33,0.96-9.91,2.84-13.62c1.96-3.86,4.5-6.97,7.78-9.51c3.4-2.64,7.41-4.64,11.92-5.96
					c4.82-1.4,9.98-2.11,15.36-2.11c2.13,0,4.3,0.11,6.44,0.33c1.92,0.2,3.89,0.57,5.84,1.11l11.06,3.04l1.51-11.37l7.21-54.33
					l0.95-7.17l-6.51-3.15c-6.2-3-12.98-5.07-20.17-6.16C607.45,324.02,600.82,323.51,594.43,323.51L594.43,323.51z"/>
			</g>
			<g>
				<path class="st24" d="M714.03,521.32c-8.15,0-16.04-1.06-23.44-3.15c-7.37-2.08-14.36-5.04-20.8-8.8
					c-6.45-3.77-12.36-8.37-17.59-13.69c-5.22-5.3-9.73-11.28-13.4-17.78c-3.66-6.46-6.55-13.5-8.58-20.9
					c-2.04-7.43-3.07-15.29-3.07-23.34c0-7.84,0.96-15.64,2.85-23.17c1.89-7.53,4.66-14.74,8.23-21.41
					c3.56-6.68,7.94-12.91,12.99-18.51c5.08-5.62,10.85-10.54,17.15-14.62c6.32-4.09,13.25-7.32,20.62-9.59
					c7.4-2.28,15.31-3.44,23.49-3.44c12.99,0,25.04,2.06,35.81,6.11c10.87,4.09,20.29,10.04,28.01,17.67
					c7.72,7.63,13.78,16.96,18.01,27.74c4.2,10.71,6.33,22.78,6.33,35.88c0,8.18-0.96,16.19-2.85,23.8
					c-1.89,7.62-4.66,14.87-8.23,21.55c-3.57,6.69-7.98,12.91-13.09,18.47c-5.13,5.59-10.98,10.45-17.38,14.44
					c-6.4,4-13.47,7.15-21,9.37C730.55,520.19,722.45,521.32,714.03,521.32z M714.03,409.57c-3.29,0-6.22,0.58-8.73,1.73
					c-2.53,1.17-4.74,2.78-6.54,4.79c-1.82,2.03-3.24,4.46-4.22,7.21c-1.01,2.83-1.52,5.89-1.52,9.08c0,3.12,0.46,6.3,1.35,9.44
					c0.87,3.05,2.19,5.83,3.91,8.27c1.66,2.36,3.67,4.21,6.12,5.66c2.28,1.35,4.93,2.01,8.08,2.01c3.24,0,6.16-0.63,8.67-1.87
					c2.6-1.28,4.74-2.96,6.53-5.14c1.83-2.22,3.27-4.84,4.27-7.76c1.02-2.98,1.53-6.12,1.53-9.33c0-3.17-0.47-6.29-1.39-9.28
					c-0.9-2.9-2.21-5.49-3.9-7.71c-1.65-2.16-3.64-3.87-6.09-5.21C719.79,410.19,717.15,409.57,714.03,409.57z"/>
				<path class="st6" d="M712.48,347.93c12.44,0,23.79,1.93,34.05,5.79c10.25,3.86,19.01,9.38,26.26,16.54
					c7.25,7.17,12.87,15.83,16.87,26.01c3.99,10.17,5.99,21.52,5.99,34.05c0,7.81-0.9,15.34-2.7,22.59
					c-1.8,7.25-4.4,14.05-7.79,20.41c-3.39,6.35-7.51,12.17-12.36,17.44c-4.85,5.28-10.3,9.81-16.35,13.58
					c-6.05,3.78-12.64,6.72-19.76,8.82c-7.12,2.1-14.68,3.15-22.66,3.15c-7.72,0-15.08-0.99-22.08-2.96
					c-7-1.97-13.54-4.74-19.63-8.3c-6.09-3.56-11.61-7.85-16.54-12.87c-4.94-5.02-9.14-10.6-12.62-16.74
					c-3.48-6.14-6.18-12.72-8.11-19.76c-1.93-7.04-2.9-14.37-2.9-22.01c0-7.47,0.9-14.78,2.7-21.95c1.8-7.16,4.4-13.92,7.79-20.28
					c3.39-6.35,7.49-12.19,12.29-17.51c4.81-5.32,10.19-9.91,16.16-13.77c5.96-3.86,12.42-6.87,19.37-9.01
					C697.42,349,704.76,347.93,712.48,347.93 M712.48,462.76c4.03,0,7.66-0.79,10.88-2.38c3.22-1.59,5.94-3.73,8.18-6.44
					c2.23-2.7,3.95-5.81,5.15-9.33c1.2-3.52,1.8-7.17,1.8-10.94c0-3.69-0.54-7.27-1.61-10.75c-1.07-3.48-2.64-6.57-4.7-9.27
					c-2.06-2.7-4.61-4.89-7.66-6.57c-3.05-1.67-6.55-2.51-10.49-2.51c-4.03,0-7.64,0.73-10.81,2.19c-3.17,1.46-5.9,3.46-8.18,5.99
					c-2.27,2.53-4.01,5.49-5.21,8.88c-1.2,3.39-1.8,6.97-1.8,10.75c0,3.6,0.52,7.21,1.55,10.81c1.03,3.6,2.58,6.87,4.63,9.78
					c2.06,2.92,4.61,5.28,7.66,7.08C704.91,461.86,708.45,462.76,712.48,462.76 M712.48,337.93c-8.68,0-17.08,1.23-24.96,3.66
					c-7.8,2.41-15.16,5.83-21.86,10.17c-6.67,4.32-12.77,9.52-18.14,15.47c-5.33,5.9-9.94,12.47-13.7,19.5
					c-3.76,7.03-6.67,14.62-8.66,22.54c-1.99,7.93-3.01,16.14-3.01,24.39c0,8.5,1.09,16.8,3.25,24.66
					c2.14,7.8,5.19,15.22,9.05,22.04c3.89,6.87,8.66,13.2,14.19,18.82c5.53,5.63,11.8,10.51,18.63,14.5
					c6.79,3.97,14.18,7.1,21.96,9.29c7.84,2.21,16.18,3.34,24.79,3.34c8.91,0,17.48-1.2,25.49-3.56c7.96-2.35,15.44-5.69,22.23-9.93
					c6.78-4.23,12.98-9.38,18.42-15.3c5.4-5.88,10.05-12.44,13.82-19.5c3.76-7.05,6.68-14.69,8.67-22.7c1.99-8,3-16.42,3-25
					c0-13.73-2.25-26.41-6.68-37.7c-4.49-11.43-10.93-21.35-19.15-29.47c-8.22-8.13-18.24-14.45-29.77-18.79
					C738.72,340.09,726.08,337.93,712.48,337.93L712.48,337.93z M712.48,452.76c-2.23,0-4.04-0.43-5.53-1.31
					c-1.84-1.09-3.33-2.47-4.58-4.24c-1.42-2.01-2.46-4.22-3.19-6.76c-0.77-2.7-1.16-5.41-1.16-8.07c0-2.66,0.4-5.08,1.23-7.41
					c0.77-2.17,1.82-3.98,3.23-5.54c1.36-1.52,2.97-2.69,4.91-3.58c1.84-0.84,4.07-1.27,6.64-1.27c2.26,0,4.12,0.42,5.68,1.28
					c1.83,1,3.3,2.27,4.52,3.86c1.35,1.78,2.37,3.79,3.1,6.16c0.77,2.5,1.16,5.12,1.16,7.8c0,2.7-0.41,5.22-1.27,7.71
					c-0.82,2.39-1.93,4.42-3.4,6.2c-1.33,1.61-2.93,2.87-4.88,3.83C717.1,452.32,714.99,452.76,712.48,452.76L712.48,452.76z"/>
			</g>
			<g>
				<polygon class="st24" points="802.04,455.06 801.4,406.76 894.57,402.43 895.2,456.79 				"/>
				<path class="st6" d="M889.63,407.66l0.52,44.03l-83.16-1.54l-0.52-38.62L889.63,407.66 M899.51,397.19l-10.34,0.48L806,401.54
					l-9.66,0.45l0.13,9.67l0.52,38.62l0.13,9.68l9.68,0.18l83.16,1.54l10.31,0.19l-0.12-10.31l-0.52-44.03L899.51,397.19
					L899.51,397.19z"/>
			</g>
			<g>
				<path class="st24" d="M971.89,529.3c-5.42,0-11.1-0.2-16.88-0.59c-5.83-0.39-11.73-1.08-17.54-2.05
					c-5.83-0.97-11.65-2.29-17.3-3.92c-5.75-1.66-11.26-3.78-16.39-6.3l-2.79-1.37l-0.27-172.28l3.11-1.28
					c4.93-2.03,10.25-3.88,15.81-5.52c5.54-1.62,11.26-3.01,17.01-4.1c5.73-1.09,11.53-1.94,17.24-2.51
					c5.73-0.57,11.35-0.86,16.72-0.86c6.27,0,12.69,0.4,19.09,1.2c6.49,0.81,12.83,2.17,18.84,4.05c6.07,1.9,11.82,4.41,17.1,7.46
					c5.42,3.13,10.23,7.05,14.31,11.63c4.12,4.65,7.38,10.11,9.69,16.23c2.31,6.13,3.48,13.22,3.48,21.08
					c0,5.31-0.78,10.38-2.31,15.07c-1.54,4.73-3.8,9.04-6.71,12.83c-2.92,3.79-6.5,7.06-10.67,9.72c-0.47,0.3-0.94,0.59-1.42,0.87
					c1.42,0.72,2.79,1.49,4.12,2.31c5.06,3.12,9.44,6.97,13,11.44c3.56,4.46,6.34,9.54,8.28,15.12c1.94,5.58,2.92,11.59,2.92,17.86
					c0,7.88-1.5,14.84-4.47,20.67c-2.92,5.75-6.88,10.7-11.77,14.73c-4.76,3.92-10.29,7.15-16.45,9.6
					c-5.95,2.37-12.22,4.25-18.66,5.59c-6.36,1.33-12.85,2.22-19.28,2.67C983.37,529.08,977.38,529.3,971.89,529.3z M968.98,469.94
					c0.81,0.12,1.61,0.18,2.39,0.18c1.5,0,3.19-0.17,5.04-0.5c1.54-0.28,2.96-0.82,4.32-1.66c1.24-0.76,2.25-1.78,3.08-3.1
					c0.72-1.14,1.1-2.93,1.1-5.19c0-2.32-0.39-4.14-1.15-5.4c-0.85-1.41-1.83-2.46-2.99-3.2c-1.26-0.81-2.6-1.33-4.1-1.6
					c-1.85-0.33-3.54-0.5-5.04-0.5c-0.77,0-1.53,0.03-2.28,0.09L968.98,469.94z M969.57,413.95c0.52-0.05,1.05-0.11,1.61-0.18
					c2.42-0.28,4.79-0.92,7.05-1.88c1.98-0.85,3.62-2.08,5.01-3.75c1.12-1.34,1.68-3.41,1.68-6.14c0-1.58-0.29-2.87-0.86-3.85
					c-0.69-1.18-1.5-2.11-2.46-2.82c-1.03-0.77-2.12-1.31-3.32-1.66c-1.29-0.38-2.4-0.57-3.29-0.57c-1.22,0-2.37,0.18-3.51,0.54
					c-0.46,0.14-0.91,0.3-1.36,0.46L969.57,413.95z"/>
				<path class="st6" d="M970.6,333.51c6.09,0,12.25,0.39,18.47,1.16c6.22,0.77,12.21,2.06,17.96,3.86
					c5.75,1.8,11.11,4.14,16.09,7.02c4.98,2.88,9.33,6.42,13.07,10.62c3.73,4.21,6.65,9.1,8.75,14.68
					c2.1,5.58,3.15,12.02,3.15,19.31c0,4.81-0.69,9.31-2.06,13.52c-1.37,4.21-3.35,7.98-5.92,11.33c-2.57,3.35-5.71,6.2-9.4,8.56
					c-3.69,2.36-7.85,4.1-12.49,5.21c5.58,1.46,10.66,3.6,15.26,6.44c4.59,2.83,8.5,6.27,11.72,10.3c3.22,4.04,5.71,8.58,7.47,13.65
					c1.76,5.07,2.64,10.47,2.64,16.22c0,7.12-1.31,13.26-3.93,18.41c-2.62,5.15-6.12,9.53-10.49,13.13
					c-4.38,3.6-9.42,6.55-15.13,8.82c-5.71,2.28-11.65,4.06-17.83,5.34c-6.18,1.29-12.38,2.14-18.6,2.57
					c-6.22,0.43-12.04,0.64-17.44,0.64c-5.32,0-10.84-0.19-16.54-0.58c-5.71-0.39-11.39-1.05-17.06-2
					c-5.66-0.94-11.24-2.21-16.74-3.8c-5.49-1.59-10.69-3.58-15.58-5.99l-0.26-165.82c4.81-1.97,9.91-3.75,15.32-5.34
					c5.41-1.59,10.92-2.92,16.54-3.99c5.62-1.07,11.22-1.89,16.8-2.45C959.96,333.79,965.37,333.51,970.6,333.51 M964.42,419.25
					c1.97,0,4.42-0.17,7.34-0.52c2.92-0.34,5.73-1.09,8.43-2.25c2.7-1.16,5-2.87,6.89-5.15c1.89-2.27,2.83-5.39,2.83-9.33
					c0-2.49-0.51-4.61-1.54-6.37c-1.03-1.76-2.3-3.2-3.8-4.31c-1.5-1.12-3.13-1.93-4.89-2.45c-1.76-0.51-3.33-0.77-4.7-0.77
					c-1.72,0-3.39,0.26-5.02,0.77c-1.63,0.52-3.22,1.12-4.76,1.8L964.42,419.25 M971.38,475.12c1.8,0,3.78-0.19,5.92-0.58
					c2.14-0.39,4.16-1.16,6.05-2.32c1.89-1.16,3.45-2.72,4.7-4.7c1.24-1.97,1.87-4.59,1.87-7.85c0-3.26-0.62-5.92-1.87-7.98
					c-1.25-2.06-2.77-3.67-4.57-4.83c-1.8-1.16-3.78-1.93-5.92-2.32c-2.15-0.39-4.12-0.58-5.92-0.58c-2.49,0-4.89,0.26-7.21,0.77
					l-0.52,29.35c1.29,0.26,2.55,0.5,3.8,0.71C968.95,475.02,970.17,475.12,971.38,475.12 M970.6,323.51
					c-5.53,0-11.32,0.3-17.21,0.89c-5.86,0.59-11.81,1.45-17.68,2.57c-5.92,1.13-11.8,2.55-17.49,4.22
					c-5.72,1.68-11.21,3.6-16.3,5.69l-6.21,2.55l0.01,6.71l0.26,165.82l0.01,6.22l5.58,2.74c5.39,2.65,11.18,4.88,17.21,6.62
					c5.83,1.69,11.84,3.05,17.87,4.05c5.97,0.99,12.04,1.7,18.03,2.11c5.9,0.4,11.7,0.6,17.22,0.6c5.6,0,11.7-0.22,18.13-0.67
					c6.66-0.46,13.37-1.39,19.95-2.76c6.72-1.4,13.28-3.37,19.49-5.84c6.64-2.64,12.62-6.14,17.78-10.39
					c5.42-4.47,9.81-9.96,13.05-16.32c3.33-6.55,5.01-14.26,5.01-22.94c0-6.84-1.07-13.4-3.19-19.5c-2.13-6.12-5.19-11.7-9.1-16.6
					c-3.34-4.19-7.32-7.88-11.86-11c2.56-2.15,4.87-4.55,6.89-7.18c3.26-4.23,5.78-9.05,7.5-14.32c1.69-5.2,2.55-10.79,2.55-16.62
					c0-8.47-1.28-16.15-3.8-22.84c-2.53-6.7-6.1-12.69-10.63-17.79c-4.43-4.99-9.66-9.24-15.54-12.64
					c-5.6-3.23-11.69-5.89-18.11-7.9c-6.3-1.97-12.93-3.4-19.72-4.24C983.71,323.93,977.08,323.51,970.6,323.51L970.6,323.51z
					 M974.74,407.87l0.26-9.78c0.15,0,0.73,0.04,1.88,0.37c0.61,0.18,1.18,0.47,1.74,0.88c0.41,0.3,0.78,0.74,1.13,1.34l0,0
					c0,0,0.17,0.34,0.17,1.32c0,1.83-0.34,2.73-0.53,2.95c-0.88,1.06-1.88,1.81-3.13,2.35C975.76,407.51,975.25,407.7,974.74,407.87
					L974.74,407.87z M974.07,464.93l0.19-10.78c0.49,0.06,1,0.14,1.53,0.24c0.84,0.15,1.59,0.44,2.28,0.89
					c0.51,0.33,0.97,0.85,1.42,1.59c0.01,0.02,0.42,0.72,0.42,2.81c0,1.88-0.34,2.54-0.34,2.54c-0.41,0.65-0.88,1.13-1.46,1.49
					c-0.82,0.5-1.67,0.83-2.59,1C975.03,464.79,974.54,464.87,974.07,464.93L974.07,464.93z"/>
			</g>
			<g>
				<path class="st24" d="M1130.37,532.13c-10.61,0-20.01-1.77-27.95-5.25c-7.91-3.47-14.79-8.22-20.46-14.12
					c-5.6-5.83-10.24-12.7-13.81-20.42c-3.48-7.53-6.23-15.61-8.18-24.01c-1.93-8.31-3.29-16.9-4.04-25.55
					c-0.74-8.55-1.11-16.9-1.11-24.83c0-12.14,0.61-24.41,1.83-36.48c1.21-12.06,2.96-24.27,5.21-36.27l0.79-4.24l70.27,2.7
					l-0.97,5.62c-2.29,13.33-4.29,26.92-5.95,40.38c-1.64,13.34-2.47,26.93-2.47,40.39c0,1.4,0.06,3.51,0.19,6.28
					c0.12,2.79,0.36,5.95,0.69,9.4c0.33,3.4,0.81,6.96,1.43,10.57c0.59,3.43,1.4,6.59,2.41,9.39c0.92,2.56,2.01,4.63,3.25,6.16
					c0.88,1.1,1.44,1.1,1.71,1.1c0.38,0,1.4,0,2.86-1.75c1.61-1.92,3.08-4.62,4.38-8.03c1.41-3.7,2.66-8.05,3.71-12.93
					c1.09-5.03,2.02-10.32,2.77-15.72c0.76-5.46,1.38-11,1.84-16.47c0.46-5.5,0.85-10.71,1.15-15.47c0.29-4.72,0.49-8.95,0.57-12.55
					c0.09-3.75,0.13-6.41,0.13-8.12c0-6.55-0.11-13.23-0.32-19.86c-0.21-6.55-0.53-13.19-0.96-19.73l-0.35-5.32h70.17l0.4,4.57
					c1.04,11.93,1.56,24.21,1.56,36.48c0,6.44-0.31,13.64-0.92,21.38c-0.61,7.75-1.63,15.86-3.01,24.13
					c-1.39,8.27-3.22,16.75-5.44,25.22c-2.24,8.56-5.07,16.91-8.41,24.82c-3.36,7.95-7.33,15.5-11.79,22.45
					c-4.56,7.08-9.88,13.36-15.81,18.66c-6.02,5.37-12.84,9.66-20.28,12.74C1147.92,530.56,1139.48,532.13,1130.37,532.13z"/>
				<path class="st6" d="M1214.56,342.01c1.03,11.84,1.54,23.86,1.54,36.05c0,6.35-0.3,13.35-0.9,20.98
					c-0.6,7.64-1.59,15.54-2.96,23.69c-1.37,8.15-3.15,16.41-5.34,24.78c-2.19,8.37-4.91,16.41-8.18,24.14
					c-3.26,7.72-7.06,14.96-11.39,21.69c-4.33,6.74-9.31,12.62-14.93,17.64c-5.62,5.02-11.91,8.97-18.86,11.84
					c-6.95,2.87-14.68,4.31-23.17,4.31c-9.96,0-18.6-1.61-25.94-4.83c-7.34-3.22-13.63-7.55-18.86-13
					c-5.24-5.45-9.53-11.8-12.87-19.05c-3.35-7.25-5.97-14.93-7.85-23.04c-1.89-8.11-3.2-16.39-3.93-24.85
					c-0.73-8.45-1.09-16.59-1.09-24.4c0-12.02,0.6-24.01,1.8-35.98c1.2-11.97,2.92-23.92,5.15-35.85l60.25,2.32
					c-2.32,13.48-4.31,27.02-5.99,40.62c-1.67,13.6-2.51,27.27-2.51,41c0,1.46,0.06,3.63,0.19,6.5c0.13,2.88,0.36,6.1,0.71,9.66
					c0.34,3.56,0.84,7.21,1.48,10.94c0.64,3.73,1.52,7.15,2.64,10.23c1.12,3.09,2.47,5.62,4.06,7.6c1.59,1.98,3.45,2.96,5.6,2.96
					c2.49,0,4.72-1.18,6.69-3.54c1.97-2.36,3.71-5.51,5.21-9.46c1.5-3.95,2.81-8.5,3.93-13.65c1.11-5.15,2.06-10.51,2.83-16.09
					c0.77-5.58,1.39-11.16,1.87-16.74c0.47-5.58,0.86-10.77,1.16-15.58c0.3-4.81,0.49-9.05,0.58-12.74
					c0.08-3.69,0.13-6.44,0.13-8.24c0-6.69-0.11-13.37-0.32-20.02c-0.21-6.65-0.54-13.28-0.97-19.89H1214.56 M1223.73,332.01h-9.17
					h-60.25h-10.67l0.69,10.65c0.42,6.48,0.74,13.07,0.95,19.57c0.21,6.57,0.32,13.2,0.32,19.7c0,1.67-0.04,4.29-0.13,8.01
					c-0.08,3.54-0.27,7.7-0.56,12.35c-0.3,4.72-0.68,9.89-1.14,15.36c-0.46,5.38-1.06,10.84-1.81,16.2
					c-0.73,5.28-1.64,10.44-2.7,15.35c-1.01,4.64-2.18,8.75-3.5,12.21c-0.72,1.9-1.43,3.35-2.07,4.45c-0.24-0.54-0.5-1.15-0.75-1.84
					c-0.91-2.52-1.65-5.4-2.19-8.54c-0.6-3.49-1.07-6.93-1.38-10.2c-0.33-3.38-0.55-6.45-0.67-9.15c-0.12-2.7-0.18-4.74-0.18-6.06
					c0-13.26,0.82-26.64,2.43-39.78c1.65-13.39,3.64-26.89,5.92-40.14l1.93-11.25l-11.41-0.44l-60.25-2.32l-8.63-0.33l-1.59,8.49
					c-2.27,12.15-4.05,24.49-5.27,36.69c-1.23,12.24-1.85,24.68-1.85,36.98c0,8.07,0.38,16.57,1.13,25.26
					c0.76,8.88,2.16,17.71,4.15,26.25c2.03,8.73,4.89,17.13,8.51,24.97c3.8,8.23,8.76,15.56,14.74,21.79
					c6.12,6.37,13.54,11.5,22.06,15.23c8.58,3.76,18.66,5.67,29.96,5.67c9.77,0,18.85-1.71,26.99-5.07
					c7.96-3.29,15.26-7.88,21.7-13.63c6.27-5.6,11.88-12.22,16.68-19.69c4.62-7.19,8.73-15,12.2-23.21
					c3.43-8.13,6.34-16.71,8.64-25.5c2.25-8.61,4.11-17.24,5.53-25.65c1.42-8.41,2.45-16.68,3.07-24.56
					c0.62-7.88,0.93-15.2,0.93-21.77c0-12.41-0.53-24.83-1.58-36.91L1223.73,332.01L1223.73,332.01z"/>
			</g>
			<g>
				<polygon class="st24" points="1250.15,531.36 1251.77,447.17 1213.01,346.6 1289.69,336.97 1298.4,384.06 1325.89,337.32 
					1399.69,342.54 1324.55,447.47 1321.06,531.36 				"/>
				<path class="st6" d="M1328.63,342.52l61.79,4.38l-70.81,98.87l-3.35,80.59h-61.02l1.54-80.08l-36.82-95.52l65.66-8.24
					l10.3,55.62L1328.63,342.52 M1293.74,331.43l-9.36,1.17l-65.66,8.24l-12.68,1.59l4.6,11.93l36.11,93.69l-1.51,78.12l-0.2,10.19
					h10.19h61.02h9.59l0.4-9.59l3.22-77.61l69.07-96.45l10.41-14.53l-17.83-1.26l-61.79-4.38l-6.18-0.44l-3.14,5.34l-19.12,32.53
					l-5.42-29.28L1293.74,331.43L1293.74,331.43z"/>
			</g>
		</g>
	</g>
</g>
<g id="Layer_2">
</g>
</svg>
